<?xml version="1.0" standalone="no"?>
<!DOCTYPE svg PUBLIC "-//W3C//DTD SVG 1.1//EN" "http://www.w3.org/Graphics/SVG/1.1/DTD/svg11.dtd" >
<svg xmlns="http://www.w3.org/2000/svg">
<metadata>Generated by IcoMoon</metadata>
<defs>
<font id="app-glyphicons" horiz-adv-x="1024">
<font-face units-per-em="1024" ascent="960" descent="-64" />
<missing-glyph horiz-adv-x="1024" />
<glyph unicode="&#x20;" horiz-adv-x="512" d="" />
<glyph unicode="&#xe900;" glyph-name="about_30" d="M580.267 516.267h-204.8v-68.267h68.267v-204.8h-68.267v-68.267h273.067v68.267h-68.267zM580.267 652.8c0-37.703-30.564-68.267-68.267-68.267s-68.267 30.564-68.267 68.267c0 37.703 30.564 68.267 68.267 68.267s68.267-30.564 68.267-68.267zM512 925.867c-262.827 0-477.867-215.040-477.867-477.867s215.040-477.867 477.867-477.867 477.867 215.040 477.867 477.867-215.040 477.867-477.867 477.867zM512 38.4c-225.28 0-409.6 184.32-409.6 409.6s184.32 409.6 409.6 409.6 409.6-184.32 409.6-409.6-184.32-409.6-409.6-409.6z" />
<glyph unicode="&#xe901;" glyph-name="add_30" d="M512 925.867c262.827 0 477.867-215.040 477.867-477.867s-211.627-477.867-477.867-477.867c-262.827 0-477.867 215.040-477.867 477.867s215.040 477.867 477.867 477.867zM474.453 485.547l-235.52-3.413v-102.4h238.933v-238.933h102.4v238.933h238.933v102.4h-238.933v238.933h-102.4l-3.413-235.52z" />
<glyph unicode="&#xe902;" glyph-name="add_new_30" d="M989.867 482.133h-443.733v443.733h-68.267v-443.733h-443.733v-68.267h443.733v-443.733h68.267v443.733h443.733z" />
<glyph unicode="&#xe903;" glyph-name="addAppt_30" d="M221.867 649.387h6.827c13.653 0 27.307 13.653 27.307 27.307v122.88c0 13.653-13.653 27.307-27.307 27.307h-6.827c-13.653 0-27.307-13.653-27.307-27.307v-122.88c3.413-13.653 13.653-27.307 27.307-27.307zM791.893 960c-129.707 0-232.107-102.4-232.107-232.107h-273.067v-51.2c0-34.133-27.307-61.44-61.44-61.44s-61.44 27.307-61.44 61.44v51.2h-163.84v-737.28h935.253v556.373c54.613 40.96 88.747 105.813 88.747 180.907 0 126.293-105.813 232.107-232.107 232.107zM860.16 65.707h-785.067v508.587h539.307c23.893-27.307 54.613-47.787 85.333-61.44h-559.787v-382.293h658.773v365.227c20.48 0 44.373 3.413 64.853 10.24v-440.32zM641.707 284.16v75.093h116.053v-75.093h-116.053zM757.76 243.2v-75.093h-116.053v75.093h116.053zM641.707 396.8v75.093h116.053v-75.093h-116.053zM491.52 284.16v75.093h109.227v-75.093h-109.227zM597.333 243.2v-75.093h-109.227v75.093h109.227zM491.52 396.8v75.093h109.227v-75.093h-109.227zM337.92 284.16v75.093h109.227v-75.093h-109.227zM447.147 243.2v-75.093h-109.227v75.093h109.227zM337.92 396.8v75.093h109.227v-75.093h-109.227zM177.493 284.16v75.093h116.053v-75.093h-116.053zM293.547 243.2v-75.093h-116.053v75.093h116.053zM177.493 396.8v75.093h116.053v-75.093h-116.053zM938.667 700.587h-122.88v-119.467h-44.373v119.467h-112.64v44.373h112.64v105.813h44.373v-105.813h122.88v-44.373z" />
<glyph unicode="&#xe904;" glyph-name="afternoon" d="M570.027 782.507l-64.853 177.493-64.853-177.493c0 0 27.307 10.24 64.853 10.24 44.373-3.413 64.853-10.24 64.853-10.24zM1024 434.347l-177.493 64.853c0 0 10.24-27.307 10.24-64.853 0-40.96-6.827-61.44-6.827-61.44l174.080 61.44zM259.413 690.347c30.72 27.307 51.2 37.547 51.2 37.547l-170.667 78.507 81.92-170.667c-3.413 0 10.24 27.307 37.547 54.613zM812.373 639.147l78.507 170.667-170.667-81.92c0 0 27.307-10.24 54.613-40.96 27.307-27.307 37.547-47.787 37.547-47.787zM170.667 437.76c0 40.96 6.827 61.44 6.827 61.44l-177.493-64.853 177.493-64.853c0 0-10.24 27.307-6.827 68.267zM457.387 113.493l64.853-177.493 64.853 177.493c0 0-27.307-10.24-64.853-10.24-44.373 3.413-64.853 10.24-64.853 10.24zM768 205.653c-30.72-27.307-51.2-37.547-51.2-37.547l170.667-78.507-81.92 170.667c3.413 0-6.827-27.307-37.547-54.613zM215.040 256.853l-78.507-170.667 170.667 81.92c0 0-27.307 10.24-54.613 40.96-27.307 27.307-37.547 47.787-37.547 47.787zM785.067 448c0-150.811-122.256-273.067-273.067-273.067s-273.067 122.256-273.067 273.067c0 150.811 122.256 273.067 273.067 273.067s273.067-122.256 273.067-273.067z" />
<glyph unicode="&#xe905;" glyph-name="alert_30" d="M921.6 192c-27.307 13.653-37.547 20.48-37.547 34.133-10.24 47.787-10.24 116.053-13.653 194.56-3.413 51.2-3.413 109.227-6.827 174.080-10.24 129.707-157.013 174.080-256 187.733-13.653 37.547-47.787 61.44-92.16 61.44-40.96 0-78.507-27.307-92.16-61.44-98.987-13.653-245.76-58.027-256-187.733-3.413-64.853-6.827-122.88-10.24-174.080-3.413-78.507-6.827-146.773-13.653-194.56-3.413-13.653-13.653-20.48-40.96-34.133-40.96-20.48-102.4-51.2-102.4-167.253v-20.48h1024v23.893c0 112.64-61.44 143.36-102.4 163.84zM71.68 72.533c6.827 34.133 30.72 51.2 61.44 64.853s64.853 30.72 75.093 78.507c10.24 51.2 13.653 119.467 17.067 204.8 3.413 51.2 3.413 105.813 6.827 170.667 10.24 126.293 276.48 129.707 279.893 129.707h3.413c3.413 0 266.24-3.413 276.48-133.12 3.413-61.44 6.827-119.467 6.827-170.667 3.413-85.333 6.827-153.6 17.067-204.8 10.24-47.787 47.787-61.44 75.093-75.093 30.72-13.653 54.613-30.72 61.44-64.853h-880.64z" />
<glyph unicode="&#xe906;" glyph-name="appointment_30" d="M689.493 178.347h160.427v382.293h-658.773v-385.707h498.347zM696.32 523.093h116.053v-75.093h-116.053v75.093zM696.32 407.040h116.053v-78.507h-116.053v78.507zM696.32 294.4h116.053v-78.507h-116.053v78.507zM542.72 523.093h109.227v-75.093h-109.227v75.093zM542.72 407.040h109.227v-78.507h-109.227v78.507zM542.72 294.4h109.227v-78.507h-109.227v78.507zM389.12 523.093h109.227v-75.093h-109.227v75.093zM389.12 407.040h109.227v-78.507h-109.227v78.507zM389.12 294.4h109.227v-78.507h-109.227v78.507zM344.747 215.893h-116.053v78.507h116.053v-78.507zM344.747 331.947h-116.053v78.507h116.053v-78.507zM344.747 448h-116.053v78.507h116.053v-78.507zM815.787 779.093v-51.2c0-34.133-27.307-61.44-61.44-61.44s-61.44 27.307-61.44 61.44v51.2h-354.987v-51.2c0-34.133-27.307-61.44-61.44-61.44s-58.027 27.307-58.027 61.44v51.2h-167.253v-740.693h938.667v740.693h-174.080zM914.773 113.493h-785.067v512h785.067v-512zM276.48 700.587h6.827c13.653 0 23.893 10.24 23.893 27.307v122.88c0 13.653-13.653 27.307-27.307 27.307h-3.413c-13.653 0-27.307-13.653-27.307-27.307v-126.293c0-13.653 10.24-23.893 27.307-23.893zM754.347 697.173h6.827c13.653 0 27.307 13.653 27.307 27.307v126.293c0 13.653-13.653 27.307-27.307 27.307h-6.827c-13.653 0-27.307-13.653-27.307-27.307v-126.293c0-13.653 10.24-27.307 27.307-27.307z" />
<glyph unicode="&#xe907;" glyph-name="arrow_left_in_circle_30" d="M34.133 448c0-262.827 215.040-477.867 477.867-477.867s477.867 215.040 477.867 477.867-215.040 477.867-477.867 477.867-477.867-215.040-477.867-477.867zM921.6 448c0-225.28-184.32-409.6-409.6-409.6s-409.6 184.32-409.6 409.6 184.32 409.6 409.6 409.6 409.6-184.32 409.6-409.6zM467.627 219.307l47.787 47.787-146.773 146.773h416.427v68.267h-416.427l146.773 146.773-47.787 47.787-228.693-228.693z" />
<glyph unicode="&#xe908;" glyph-name="calendar_30" d="M750.933 516.267h-443.733v-341.333h443.733v341.333zM443.733 209.067h-102.4v68.267h102.4v-68.267zM443.733 311.467h-102.4v68.267h102.4v-68.267zM443.733 413.867h-102.4v68.267h102.4v-68.267zM580.267 209.067h-102.4v68.267h102.4v-68.267zM580.267 311.467h-102.4v68.267h102.4v-68.267zM580.267 413.867h-102.4v68.267h102.4v-68.267zM716.8 209.067h-102.4v68.267h102.4v-68.267zM716.8 311.467h-102.4v68.267h102.4v-68.267zM716.8 413.867h-102.4v68.267h102.4v-68.267zM819.2 755.2v34.133c0 58.027-44.373 102.4-102.4 102.4s-102.4-44.373-102.4-102.4v-34.133h-170.667v34.133c0 58.027-44.373 102.4-102.4 102.4s-102.4-44.373-102.4-102.4v-34.133h-136.533v-750.933h853.333v750.933h-136.533zM682.667 789.333c0 20.48 13.653 34.133 34.133 34.133s34.133-13.653 34.133-34.133v-102.4h-68.267v102.4zM307.2 789.333c0 20.48 13.653 34.133 34.133 34.133s34.133-13.653 34.133-34.133v-102.4h-68.267v102.4zM887.467 72.533h-716.8v546.133h716.8v-546.133z" />
<glyph unicode="&#xe909;" glyph-name="calendar_preset" d="M238.933 652.8h546.133v-68.267h-546.133v68.267zM238.933 482.133h546.133v-68.267h-546.133v68.267zM238.933 311.467h546.133v-68.267h-546.133v68.267z" />
<glyph unicode="&#xe90a;" glyph-name="cancel_action_30" d="M795.307 673.28l-47.787 47.787-228.693-228.693-235.52 228.693-44.373-44.373 235.52-228.693-235.52-225.28 47.787-47.787 235.52 225.28 225.28-225.28 44.373 44.373-225.28 228.693 228.693 225.28z" />
<glyph unicode="&#xe90b;" glyph-name="Chevron_Left-16px" d="M787.2 19.2l-422.4 422.4 422.4 416-57.6 57.6-473.6-473.6 473.6-480z" />
<glyph unicode="&#xe90c;" glyph-name="Chevron_Left-20px" d="M727.040-33.28l40.96 40.96-440.32 440.32 440.32 440.32-40.96 40.96-486.4-481.28z" />
<glyph unicode="&#xe90d;" glyph-name="Chevron_Left-30px" d="M737.28-19.627l47.787 47.787-419.84 419.84 419.84 419.84-47.787 47.787-467.627-467.627z" />
<glyph unicode="&#xe90e;" glyph-name="Chevron_Right-16px" d="M256 19.2l422.4 422.4-422.4 416 51.2 57.6 480-473.6-480-480z" />
<glyph unicode="&#xe90f;" glyph-name="Chevron_Right-20px" d="M286.72-33.28l-46.080 40.96 440.32 440.32-440.32 440.32 46.080 40.96 481.28-481.28z" />
<glyph unicode="&#xe910;" glyph-name="Chevron_Right-30px" d="M317.44-19.627l-47.787 47.787 419.84 419.84-419.84 419.84 47.787 47.787 467.627-467.627z" />
<glyph unicode="&#xe911;" glyph-name="clock_30" d="M512 857.6c225.28 0 409.6-184.32 409.6-409.6s-184.32-409.6-409.6-409.6-409.6 184.32-409.6 409.6 184.32 409.6 409.6 409.6zM512 925.867c-262.827 0-477.867-215.040-477.867-477.867s215.040-477.867 477.867-477.867 477.867 215.040 477.867 477.867-215.040 477.867-477.867 477.867zM716.8 448h-170.667v273.067c0 20.48-13.653 34.133-34.133 34.133s-34.133-13.653-34.133-34.133v-341.333h238.933c20.48 0 34.133 13.653 34.133 34.133s-13.653 34.133-34.133 34.133z" />
<glyph unicode="&#xe912;" glyph-name="close_searchArea_30" d="M768 605.013l-81.92 81.92-157.013-160.427-160.427 160.427-78.507-81.92 157.013-157.013-157.013-157.013 81.92-81.92 157.013 157.013 157.013-157.013 78.507 81.92-157.013 157.013z" />
<glyph unicode="&#xe913;" glyph-name="collapse" d="M819.2 576v-471.040c0-10.24-5.12-15.36-15.36-15.36h-686.080c-10.24 0-15.36 5.12-15.36 15.36v686.080c0 10.24 5.12 15.36 15.36 15.36h465.92l97.28 102.4h-655.36c-15.36 0-25.6-10.24-25.6-25.6v-870.4c0-15.36 10.24-25.6 25.6-25.6h870.4c15.36 0 25.6 10.24 25.6 25.6v670.72l-102.4-107.52zM409.6 611.84c0 30.72-20.48 51.2-51.2 51.2s-51.2-20.48-51.2-51.2v-291.84c0-10.24 15.36-25.6 30.72-25.6h291.84c30.72 0 51.2 20.48 51.2 51.2s-20.48 51.2-51.2 51.2h-122.88l414.72 409.6c20.48 25.6 20.48 81.92 0 102.4s-76.8 25.6-102.4 0l-409.6-409.6v112.64z" />
<glyph unicode="&#xe914;" glyph-name="complete" d="M384 960h320v-1024h-320v1024z" />
<glyph unicode="&#xe915;" glyph-name="continue_30" d="M512 789.333c-187.733 0-341.333-153.6-341.333-341.333s153.6-341.333 341.333-341.333 341.333 153.6 341.333 341.333-153.6 341.333-341.333 341.333zM515.413 174.933c-153.6 0-273.067 122.88-273.067 273.067s122.88 273.067 273.067 273.067 273.067-122.88 273.067-273.067-122.88-273.067-273.067-273.067zM443.733 550.4l102.4-102.4-102.4-102.4 34.133-34.133 136.533 136.533-133.12 136.533z" />
<glyph unicode="&#xe916;" glyph-name="contract_30" d="M887.467 925.867h-750.933c-58.027 0-102.4-44.373-102.4-102.4v-750.933c0-54.613 44.373-102.4 102.4-102.4h750.933c54.613 0 102.4 47.787 102.4 102.4v750.933c0 54.613-44.373 102.4-102.4 102.4zM785.067 379.733h-546.133v136.533h546.133v-136.533z" />
<glyph unicode="&#xe917;" glyph-name="coupon_30" d="M1024 789.333c0 23.893-20.48 34.133-44.373 34.133h-945.493c-23.893 0-34.133-10.24-34.133-34.133v-672.427c0-23.893 20.48-44.373 44.373-44.373h935.253c23.893 0 44.373 20.48 44.373 44.373v672.427zM68.267 550.4c0 51.2 47.787 102.4 102.4 102.4s102.4-51.2 102.4-102.4-44.373-102.4-102.4-102.4c-58.027 0-102.4 51.2-102.4 102.4zM170.667 243.2l204.8 409.6h68.267l-204.8-409.6h-68.267zM443.733 243.2c-58.027 0-102.4 51.2-102.4 102.4s47.787 102.4 102.4 102.4c54.613 0 102.4-51.2 102.4-102.4s-44.373-102.4-102.4-102.4zM955.733 140.8h-341.333v614.4h341.333v-614.4zM443.733 413.867c-30.72 0-34.133-37.547-34.133-68.267 0-34.133 6.827-68.267 34.133-68.267s34.133 34.133 34.133 68.267c0 30.72-6.827 68.267-34.133 68.267zM170.667 618.667c-30.72 0-34.133-37.547-34.133-68.267 0-34.133 6.827-68.267 34.133-68.267s34.133 34.133 34.133 68.267c0 30.72-6.827 68.267-34.133 68.267zM682.667 516.267h204.8v-34.133h-204.8v34.133zM682.667 618.667h204.8v-68.267h-204.8v68.267zM682.667 686.933h204.8v-34.133h-204.8v34.133zM682.667 345.6h204.8v-34.133h-204.8v34.133zM682.667 448h204.8v-68.267h-204.8v68.267zM682.667 277.333h204.8v-68.267h-204.8v68.267z" />
<glyph unicode="&#xe918;" glyph-name="customer_30" d="M819.2 277.333c-20.48 47.787-153.6 30.72-204.8 81.92-27.307 27.307-37.547 54.613-34.133 54.613 54.613 10.24 136.533 133.12 136.533 238.933 0 116.053-88.747 204.8-204.8 204.8-126.293 0-204.8-88.747-204.8-204.8 0-98.987 61.44-201.387 133.12-238.933 3.413 0-6.827-30.72-37.547-51.2-61.44-44.373-170.667-40.96-201.387-81.92-37.547-51.2-34.133-238.933-34.133-238.933h682.667c3.413-3.413 0 163.84-30.72 235.52z" />
<glyph unicode="&#xe919;" glyph-name="customerPickup" d="M515.117-58.657c-278.706 0-505.767 227.061-505.767 505.767s227.061 505.767 505.767 505.767 505.767-227.061 505.767-505.767-226.616-505.767-505.767-505.767zM515.117 935.068c-268.911 0-487.513-219.047-487.513-487.958s219.047-487.958 487.958-487.958c268.911 0 487.958 219.047 487.958 487.958s-219.047 487.958-488.403 487.958zM335.694 629.203c0-42.741 34.282-77.023 77.023-77.023s77.023 34.282 77.023 77.023c0 42.741-34.727 77.023-77.023 77.023-42.741 0-77.023-34.282-77.023-77.023zM422.957 554.852h-75.687c0 0-86.817 5.343-89.043-80.139 0 0 0-4.452 0-4.452v-213.704c0 0 0 0 0 0 0-15.583 15.583-26.713 31.165-26.713s31.165 11.13 31.165 26.713c0 0 0 0 0 0v0 191.443c0 3.117 1.336 4.452 4.452 4.452v0c3.117 0 4.897-0.89 4.897-4.007l-0.445-199.457c0-3.117 2.671-5.788 5.788-5.788h171.409c3.117 0 5.788 2.671 5.788 5.788v242.643c0 3.117 2.671 5.788 5.343 5.788h185.656l2.226 1.781c0.445 0-2.671-1.781-2.226-1.781 15.583 0 31.61 14.247 31.61 29.83s-12.466 28.049-28.049 28.049c-0.445 0-0.89 0-1.336 0v0h-278.261zM765.774 390.122c0-9.835-7.973-17.809-17.809-17.809s-17.809 7.973-17.809 17.809c0 9.835 7.973 17.809 17.809 17.809s17.809-7.973 17.809-17.809zM667.826 390.122c0-9.835-7.973-17.809-17.809-17.809s-17.809 7.973-17.809 17.809c0 9.835 7.973 17.809 17.809 17.809s17.809-7.973 17.809-17.809zM845.913 448h-94.831c-7.123 49.419-28.939 88.598-56.097 88.598s-48.974-39.179-56.097-88.598h-91.27v-249.322h298.296v249.322zM694.984 517.009c14.247 0 29.83-28.939 36.063-69.009h-72.125c6.233 40.070 21.816 69.009 36.063 69.009zM565.426 216.487v213.704h262.678v-213.704h-262.678z" />
<glyph unicode="&#xe91a;" glyph-name="custPickup_Available_30" d="M829.44 482.133h-177.493c-13.653 170.667-75.093 252.587-150.187 252.587s-136.533-81.92-150.187-252.587h-180.907v-546.133h658.773v546.133zM505.173 686.933c40.96 0 85.333-68.267 98.987-204.8h-194.56c10.24 136.533 54.613 204.8 95.573 204.8zM375.467 304.64c-23.893 0-40.96 20.48-40.96 40.96 0 23.893 20.48 40.96 40.96 40.96s40.96-20.48 40.96-40.96c3.413-23.893-17.067-40.96-40.96-40.96zM624.64 304.64c-23.893 0-40.96 20.48-40.96 40.96 0 23.893 20.48 40.96 40.96 40.96 23.893 0 40.96-20.48 40.96-40.96 0-23.893-17.067-40.96-40.96-40.96z" />
<glyph unicode="&#xe91b;" glyph-name="custPickup_notAvailable_30" d="M877.227-64h-713.387v580.267h201.387c17.067 160.427 78.507 252.587 163.84 252.587 88.747 0 146.773-92.16 163.84-252.587h177.493l6.827-580.267zM197.973-29.867h641.707v512h-174.080v17.067c-13.653 150.187-61.44 235.52-133.12 235.52s-119.467-88.747-133.12-235.52v-17.067h-201.387v-512zM651.947 308.053c-34.133 0-58.027 27.307-58.027 58.027s27.307 58.027 58.027 58.027 58.027-27.307 58.027-58.027c0-30.72-23.893-58.027-58.027-58.027zM651.947 393.387c-13.653 0-23.893-10.24-23.893-23.893s10.24-23.893 23.893-23.893 23.893 10.24 23.893 23.893c0 13.653-10.24 23.893-23.893 23.893zM406.187 311.467c-34.133 0-58.027 27.307-58.027 58.027s27.307 58.027 58.027 58.027 58.027-27.307 58.027-58.027c0-30.72-27.307-58.027-58.027-58.027zM406.187 393.387c-13.653 0-23.893-10.24-23.893-23.893s10.24-23.893 23.893-23.893 23.893 10.24 23.893 23.893c0 13.653-10.24 23.893-23.893 23.893zM648.533 482.133h-232.107l3.413 17.067c10.24 136.533 54.613 221.867 112.64 221.867s102.4-85.333 116.053-218.453v-20.48zM453.973 516.267h157.013c-17.067 122.88-54.613 170.667-78.507 170.667s-61.44-47.787-78.507-170.667z" />
<glyph unicode="&#xe91c;" glyph-name="dashboard_switch" d="M0 891.733v-785.067h887.467v785.067h-887.467zM819.2 174.933h-750.933v580.267h750.933v-580.267zM436.907 277.333c139.947 0 249.173 75.093 314.027 187.733-64.853 112.64-174.080 187.733-314.027 187.733-129.707 0-232.107-64.853-300.373-167.253-10.24-13.653-10.24-30.72 0-44.373 68.267-98.987 170.667-163.84 300.373-163.84zM436.907 622.080c112.64 0 211.627-54.613 276.48-157.013-64.853-102.4-163.84-157.013-276.48-157.013-105.813 0-194.56 47.787-259.413 133.12-10.24 13.653-10.24 34.133 0 47.787 64.853 85.333 153.6 133.12 259.413 133.12zM436.907 355.84c61.44 0 109.227 47.787 109.227 109.227s-47.787 109.227-109.227 109.227c-61.44 0-109.227-47.787-109.227-109.227s47.787-109.227 109.227-109.227zM436.907 502.613c20.48 0 37.547-17.067 37.547-37.547s-17.067-37.547-37.547-37.547c-20.48 0-37.547 17.067-37.547 37.547s17.067 37.547 37.547 37.547zM955.733 721.067v-682.667h-853.333v-68.267h921.6v750.933z" />
<glyph unicode="&#xe91d;" glyph-name="delete_30" d="M849.92 785.92c187.733-187.733 187.733-488.107 0-675.84s-488.107-187.733-672.427 0-187.733 488.107 0 675.84 484.693 184.32 672.427 0zM512 499.2l-153.6 153.6-81.92-81.92 153.6-153.6-160.427-160.427 81.92-78.507 160.427 157.013 160.427-160.427 78.507 85.333-157.013 153.6 157.013 153.6-81.92 81.92-157.013-150.187z" />
<glyph unicode="&#xe91e;" glyph-name="delivery_Available_30" d="M928.427 420.693h-382.293v-228.693h-51.2l-146.773 157.013c-6.827 3.413-10.24 6.827-13.653 10.24-13.653 13.653-34.133 20.48-58.027 20.48h-3.413c47.787 13.653 81.92 58.027 81.92 109.227 0 64.853-51.2 116.053-116.053 116.053s-116.053-51.2-116.053-116.053c0-51.2 34.133-95.573 81.92-109.227-47.787-3.413-85.333-40.96-85.333-88.747v-354.987h242.347v225.28l58.027-61.44 6.827-6.827c3.413-3.413 10.24-6.827 17.067-10.24s13.653-3.413 20.48-3.413l259.413-3.413c23.893 0 44.373 13.653 54.613 37.547h150.187v307.2zM894.293 144.213h-112.64c-6.827 23.893-27.307 44.373-54.613 44.373l-146.773 3.413v194.56h119.467v-109.227h81.92v109.227h112.64c0 0 0-242.347 0-242.347z" />
<glyph unicode="&#xe91f;" glyph-name="delivery_notAvailable_30" d="M249.173 550.4c44.373 0 81.92-37.547 81.92-81.92 0-23.893-10.24-44.373-27.307-61.44l-37.547-34.133c0 0 51.2-23.893 64.853-34.133s146.773-157.013 146.773-157.013l10.24-10.24h98.987l150.187-3.413c10.24 0 20.48-6.827 23.893-20.48v-6.827l-3.413-6.827c-3.413-6.827-13.653-13.653-20.48-13.653l-259.413 6.827c-3.413 0-3.413 0-6.827 3.413h-6.827l-3.413 3.413v3.413l-58.027 61.44-61.44 61.44v-290.133h-174.080v334.507c0 20.48 10.24 37.547 27.307 47.787l40.96 23.893-37.547 30.72c-20.48 17.067-30.72 37.547-30.72 61.44 0 44.373 37.547 81.92 81.92 81.92zM757.76 400.213v-75.093h-13.653v75.093h13.653zM249.173 584.533c-64.853 0-116.053-51.2-116.053-116.053 0-34.133 17.067-68.267 40.96-88.747-27.307-13.653-44.373-44.373-44.373-75.093v-368.64h245.76v238.933l58.027-61.44 6.827-6.827c3.413-3.413 10.24-6.827 17.067-10.24s13.653-3.413 20.48-3.413l259.413-3.413c23.893 0 44.373 13.653 51.2 34.133h133.12v310.613h-368.64v-228.693h-51.2l-146.773 157.013c-10.24 13.653-23.893 17.067-27.307 20.48 23.893 20.48 37.547 51.2 37.547 85.333 0 64.853-51.2 116.053-116.053 116.053v0zM709.973 287.573h81.92v109.227h95.573v-242.347h-95.573c-3.413 27.307-27.307 44.373-54.613 47.787l-150.187 3.413v194.56h119.467l3.413-112.64z" />
<glyph unicode="&#xe920;" glyph-name="Desktop" d="M34.133 925.867v-716.8h443.733v-170.667h-170.667v-68.267h409.6v68.267h-170.667v170.667h443.733v716.8h-955.733zM938.667 311.467h-853.333v512h853.333v-512z" />
<glyph unicode="&#xe921;" glyph-name="done_30" d="M409.6 267.093l-201.387 201.387-44.373-44.373 245.76-249.173 477.867 498.347-51.2 47.787z" />
<glyph unicode="&#xe922;" glyph-name="dot_carousel" d="M986.453 448c0-262.033-212.42-474.453-474.453-474.453s-474.453 212.42-474.453 474.453c0 262.033 212.42 474.453 474.453 474.453s474.453-212.42 474.453-474.453z" />
<glyph unicode="&#xe923;" glyph-name="edit_30" d="M969.387 727.893l-177.493 177.493c-17.067 17.067-40.96 17.067-58.027 0l-88.747-88.747 242.347-242.347 88.747 88.747c10.24 17.067 10.24 47.787-6.827 64.853zM157.013 328.533l-119.467-354.987 351.573 116.053 413.013 413.013-235.52 235.52-409.6-409.6zM361.813 144.213l-54.613-17.067-116.053 116.053 17.067 54.613 358.4 358.4 153.6-153.6-358.4-358.4z" />
<glyph unicode="&#xe924;" glyph-name="email_30" d="M68.267 755.2v-614.4h887.467v614.4h-887.467zM167.253 680.107h689.493l-344.747-238.933-344.747 238.933zM887.467 663.040v-453.973h-750.933v443.733l375.467-256 375.467 266.24z" />
<glyph unicode="&#xe925;" glyph-name="error_30" d="M515.413 925.867c-262.827 0-477.867-215.040-477.867-477.867s215.040-477.867 477.867-477.867 477.867 215.040 477.867 477.867-211.627 477.867-477.867 477.867zM105.813 448c0 225.28 184.32 409.6 409.6 409.6 102.4 0 197.973-37.547 269.653-102.4l-573.44-580.267c-64.853 71.68-105.813 167.253-105.813 273.067zM515.413 38.4c-95.573 0-184.32 34.133-252.587 88.747l570.027 580.267c58.027-71.68 92.16-160.427 92.16-259.413 0-225.28-180.907-409.6-409.6-409.6z" />
<glyph unicode="&#xe926;" glyph-name="evening" d="M696.32 195.413c-228.693 0-416.427 184.32-416.427 416.427 0 116.053 51.2 218.453 119.467 293.547-208.213-47.787-365.227-232.107-365.227-457.387 0-259.413 211.627-471.040 471.040-471.040 204.8 0 375.467 126.293 440.32 307.2-64.853-58.027-153.6-88.747-249.173-88.747z" />
<glyph unicode="&#xe927;" glyph-name="expand_30" d="M989.867 765.44c0 88.747-71.68 160.427-160.427 160.427h-634.88c-88.747 0-160.427-71.68-160.427-160.427v-638.293c0-85.333 71.68-157.013 160.427-157.013h638.293c88.747 0 160.427 71.68 160.427 160.427v634.88zM785.067 379.733h-204.8v-204.8h-136.533v204.8h-204.8v136.533h204.8v204.8h136.533v-204.8h204.8v-136.533z" />
<glyph unicode="&#xe928;" glyph-name="filterBy_off" d="M896 896h-896v-160l352-352v-448l224 201.6v246.4l320 352v160zM512 425.6v-265.6l-96-96v361.6l-352 342.4h768l-320-342.4z" />
<glyph unicode="&#xe929;" d="M0 896v-160l352-352v-448l224 201.6v246.4l320 352v160h-896zM512 425.6v-265.6l-96-96v361.6l-352 342.4h768l-320-342.4z" />
<glyph unicode="&#xe92a;" d="M448 512h32l192 192h-416z" />
<glyph unicode="&#xe92b;" d="M1024-28.8c0-19.2-16-35.2-35.2-35.2h-313.6c-19.2 0-35.2 16-35.2 35.2v313.6c0 19.2 16 35.2 35.2 35.2h313.6c19.2 0 35.2-16 35.2-35.2v-313.6zM800 96l-60.8 57.6-38.4-38.4 102.4-99.2 163.2 166.4-48 38.4-118.4-124.8z" />
<glyph unicode="&#xe92c;" glyph-name="findCustomer_30" d="M856.747 461.653c-17.067 17.067-10.24 20.48-10.24 20.48 23.893 10.24 40.96 54.613 40.96 95.573 0 44.373-27.307 75.093-71.68 75.093-51.2 0-75.093-30.72-75.093-78.507 0-37.547 10.24-81.92 37.547-95.573 0 0 0-10.24-13.653-17.067-20.48-13.653-54.613-20.48-71.68-30.72-3.413 17.067-6.827 30.72-10.24 37.547-13.653 27.307-98.987 27.307-129.707 58.027-23.893 23.893-17.067 27.307-17.067 27.307 34.133 17.067 61.44 81.92 61.44 143.36 0 68.267-37.547 116.053-105.813 116.053-75.093 0-112.64-47.787-112.64-116.053 0-58.027 13.653-122.88 58.027-143.36 3.413 0 6.827-13.653-10.24-23.893-37.547-23.893-112.64-34.133-129.707-61.44-3.413-6.827-6.827-17.067-10.24-27.307-20.48 6.827-44.373 10.24-54.613 23.893-17.067 17.067-10.24 20.48-10.24 20.48 23.893 10.24 40.96 54.613 40.96 95.573 0 44.373-23.893 78.507-71.68 78.507-51.2 0-75.093-30.72-75.093-78.507 0-37.547 10.24-81.92 37.547-95.573 0 0 0-10.24-13.653-17.067-23.893-17.067-68.267-20.48-81.92-37.547-13.653-20.48-10.24-95.573-10.24-95.573h262.827c17.067 81.92 88.747 143.36 174.080 143.36s157.013-61.44 174.080-143.36h296.96c0 0 0 64.853-10.24 85.333-13.653 17.067-68.267 20.48-88.747 40.96zM484.693 458.24c-85.333 0-157.013-68.267-157.013-157.013s68.267-157.013 157.013-157.013 157.013 68.267 157.013 157.013-71.68 157.013-157.013 157.013zM484.693 181.76c-68.267 0-122.88 54.613-122.88 122.88s54.613 122.88 122.88 122.88 122.88-54.613 122.88-122.88-54.613-122.88-122.88-122.88zM655.851 174.113l98.956-98.956-43.444-43.444-98.956 98.956 43.444 43.444zM628.053 174.933c0 6.827-20.48 13.653-27.307 13.653s0-6.827 0-13.653c0-6.827 6.827-13.653 13.653-13.653s13.653 6.827 13.653 13.653z" />
<glyph unicode="&#xe92d;" glyph-name="findCustomer" d="M756.424 461.802c-10.685 11.13-7.123 12.466-6.678 12.911 15.137 7.123 26.713 35.617 26.713 62.776 0 30.275-16.918 51.645-46.748 51.645-32.946 0-49.864-21.37-49.864-51.645 0-25.823 6.233-53.426 24.932-63.221 0.89-0.445-0.89-7.123-8.459-12.021-13.357-9.35-36.063-12.911-47.638-20.48-1.336 10.685-3.562 20.035-6.233 25.377-8.904 17.363-66.337 17.809-86.372 39.179-16.028 16.918-11.13 19.144-10.24 19.144 22.706 10.685 40.070 53.426 40.070 94.831 0 45.412-25.377 77.913-70.344 77.913-49.419 0-75.242-32.501-75.242-77.913 0-38.734 9.795-80.584 37.843-95.277 1.336-0.445 3.562-8.904-7.569-16.918-24.042-16.473-74.351-23.597-85.927-39.624-3.117-4.007-5.343-10.24-7.123-17.363-13.357 3.562-29.384 7.123-36.953 15.583-10.685 11.13-7.123 12.466-6.678 12.911 15.137 7.123 26.713 35.617 26.713 62.776 0 30.275-16.918 51.645-46.748 51.645-32.946 0-49.864-21.37-49.864-51.645 0-25.823 6.233-53.426 24.932-63.221 0.89-0.445-0.89-7.123-8.459-12.021-16.028-11.13-45.857-14.247-53.426-24.932-9.795-13.357-6.233-63.221-6.233-63.221h174.525c11.13 53.871 58.769 93.941 115.757 93.941s104.626-40.515 115.757-93.941h195.005c0 0-0.445 42.741-7.569 56.097-7.123 12.466-44.967 12.911-57.878 26.713zM509.774 460.466c-56.988 0-103.29-46.303-103.29-103.29s46.303-103.29 103.29-103.29c56.988 0 103.29 46.303 103.29 103.29s-46.303 103.29-103.29 103.29zM509.774 276.146c-44.522 0-80.584 36.063-80.584 80.584s36.063 80.584 80.584 80.584c44.522 0 80.584-36.063 80.584-80.584s-36.063-80.584-80.584-80.584zM660.189 178.294l-65.796 65.796 28.333 28.333 65.796-65.796-28.333-28.333zM603.715 272.139c0 5.343-12.911 9.35-18.254 9.35s-0.445-4.007-0.445-9.35 4.007-9.35 9.35-9.35 9.35 4.452 9.35 9.35zM517.788 951.096c-278.706 0-505.767-227.061-505.767-505.767s227.061-505.767 505.767-505.767 505.767 227.061 505.767 505.767-226.616 505.767-505.767 505.767zM517.788-42.63c-268.911 0-487.958 219.047-487.958 487.958s219.047 487.958 487.958 487.958 487.958-219.047 487.958-487.958-218.602-487.958-487.958-487.958z" />
<glyph unicode="&#xe92e;" glyph-name="findProducts_beauty" d="M511.11 955.103c-279.151 0-505.767-227.061-505.767-505.767s227.061-505.767 505.767-505.767 505.767 227.061 505.767 505.767-227.061 505.767-505.767 505.767zM511.11-38.623c-268.911 0-487.958 219.047-487.958 487.958s218.602 487.958 487.958 487.958 487.958-219.047 487.958-487.958-219.047-487.958-487.958-487.958zM800.056 545.503c-36.508 0-66.783-12.911-74.351-35.172h-40.070v21.816c0 4.897-5.788 9.35-10.685 9.35h-41.405c-4.897 0-10.24-4.452-10.24-9.35v-76.132c0-1.781 0.445-3.117 1.781-4.452-79.694-12.466-140.689-81.475-140.689-164.73 0-66.783 39.624-124.661 96.612-150.929h140.243c56.988 26.268 96.612 84.146 96.612 150.929 0 81.030-57.878 148.257-134.456 163.395 1.781 1.336 2.671 3.117 2.671 5.343v41.405h38.289c4.452-22.261 36.508-39.624 76.132-39.624 42.296 0 76.577 19.59 76.577 44.077s-34.727 44.077-77.023 44.077zM799.61 287.277c0-56.543-32.501-108.188-82.81-133.12h-132.23c-50.31 24.932-82.81 77.023-82.81 133.12 0 81.92 66.783 148.703 148.703 148.703 0.89 0 1.336 0 2.226 0 2.226-25.823 4.897-56.988 5.343-67.228 0.445-9.35-1.781-32.056-4.007-52.536l-121.99 0.445c-2.226-9.795-3.562-22.261-3.562-32.946 0-50.755 29.83-98.393 73.016-116.202h104.181c43.186 17.809 73.016 66.337 73.016 116.647 0 10.24-1.336 21.816-3.562 31.61l-104.626 0.445c2.226 18.254 4.007 39.624 4.007 52.536 0 14.692-2.226 42.741-4.452 65.892 72.57-8.904 129.558-71.68 129.558-147.367zM495.527 185.767v-20.48c0-0.89-0.89-2.226-1.781-2.226h-210.588c0 0 1.781 1.781 1.781 2.226v37.843h200.348l-8.904 17.809h-191.443v195.896h204.8v-26.713l17.809 22.261 0.445 116.202c0 0.445 0 7.123-0.445 9.35-8.014 40.070-35.617 72.57-71.68 88.153v62.33h-22.261v49.419h51.2c4.897 0 9.35 4.007 9.35 8.904s-3.562 8.459-8.459 8.459c0 0 0 0 0 0h-171.854l-22.261-16.473c-4.007-3.117-4.897-8.459-1.781-12.466 1.781-2.226 4.452-3.562 7.123-3.562 1.781 0 3.562 0.445 5.343 1.781l16.473 12.911h61.885v-48.974h-22.261v-61.885c-36.063-15.583-63.221-48.083-71.68-88.598-0.445-1.336 0.445-9.35 0.445-9.35v-362.852c0-14.247 7.123-20.035 15.137-20.035h211.478c10.685 0 19.59 8.904 19.59 20.035 0 0-6.233 6.233-9.795 10.685s-8.014 9.35-8.014 9.35zM352.167 612.73h69.899c34.727-12.021 61.44-41.85 69.009-79.694 0 0 0-3.117 0-4.452l-1.336-93.941h-204.8v93.941c0 1.336-0.89 4.452-0.89 4.452 7.123 37.843 33.391 67.673 68.118 79.694z" />
<glyph unicode="&#xe92f;" glyph-name="findProducts_clothing" d="M515.562 955.103c-279.151 0-505.767-227.061-505.767-505.767s227.061-505.767 505.767-505.767 505.767 227.061 505.767 505.767-227.061 505.767-505.767 505.767zM515.562-38.623c-268.911 0-487.958 219.047-487.958 487.958s218.602 487.958 487.958 487.958 487.958-219.047 487.958-487.958-219.047-487.958-487.958-487.958zM535.597 256.111c-61.44 22.706-65.002 31.165-65.002 31.165s-3.117-8.459-25.823-11.576-83.256-5.343-217.266 155.826c-16.028 19.59-45.412 16.028-45.412 16.028s-17.809-16.028-17.809-74.351c0-32.946 8.904-45.857 22.261-85.037 0.445-1.336 0.89-3.562 1.336-5.343-8.014-5.343-13.357-14.692-13.357-25.377 0-13.357 8.459-24.487 20.035-28.939 2.226-28.939 3.562-56.543 3.562-56.543h24.487c0 0 0 29.83 0 60.55 8.014 5.343 12.911 14.692 12.911 24.932s-5.343 19.59-12.911 24.932c0 6.678 0 11.13 0 12.911 0 9.795 8.904 24.487 28.494 8.459s73.461-98.838 102.845-98.838c29.384 0 201.238 0.445 201.238 0.445s73.461 16.918-19.59 50.755zM550.734 189.774h-193.224c-3.117 0-5.788-2.671-5.788-5.788v-6.233c0-3.117 2.671-5.788 5.788-5.788h193.224c3.117 0 5.788 2.671 5.788 5.788v6.233c0 3.117-2.671 5.788-5.788 5.788zM797.83 719.583h-73.016l-21.37 21.37c-1.781 1.781-4.452 2.671-7.123 2.671v0l-239.972 2.226 0.89-0.89c-1.781 0-3.562-0.89-5.343-2.226l-24.932-22.261c-0.445-0.445-0.445-0.89-0.89-0.89h-64.111c-12.911 0-23.597-10.24-23.597-23.151v-343.708l17.809-16.028v360.626c0 2.671 3.562 4.452 6.678 4.452h63.666l30.275-138.463c0.445-2.671 2.671-5.343 5.343-6.233 1.336-0.445 2.226-0.89 3.562-0.89 1.781 0 3.117 0.445 4.452 1.336l66.783 40.515 31.61-24.932-16.028-68.118 52.090 43.186-3.562 24.932 23.597 25.377 61.885-40.515c1.336-0.89 3.117-1.336 4.897-1.336 1.336 0 2.226 0 3.562 0.89 2.671 1.336 4.897 3.562 5.343 6.233l29.384 138.463h67.228c3.117 0 4.452-1.781 4.452-4.452v-471.93c0-2.671-1.336-4.452-4.452-4.452h-186.991c0 0-0.89-4.452-4.452-8.904s-13.357-8.904-13.357-8.904h204.8c12.911 0 22.261 9.35 22.261 22.261v471.485c0 12.911-8.459 22.261-21.37 22.261zM471.93 579.339l-28.939 131.339 15.583 13.802 105.517-89.489-92.16-55.652zM685.19 579.784l-83.256 55.207 95.277 87.708 15.137-15.583-27.158-127.332zM544.946 469.816l-9.795-56.988 84.591 65.447-6.678 44.522zM511.555 301.969l119.763 90.379-9.35 60.995-92.16-72.125zM636.661 364.299l-102.4-78.358 65.447-39.624 56.097 37.843z" />
<glyph unicode="&#xe930;" glyph-name="findProducts_electro_kitchen" d="M511.11 955.103c-279.151 0-505.767-227.061-505.767-505.767s227.061-505.767 505.767-505.767 505.767 227.061 505.767 505.767-227.061 505.767-505.767 505.767zM511.11-38.623c-268.911 0-487.958 219.047-487.958 487.958s218.602 487.958 487.958 487.958 487.958-219.047 487.958-487.958-219.047-487.958-487.958-487.958zM464.362 349.607l19.59 197.231 65.892 95.277c1.781 2.671 2.226 6.233 0.89 8.904s-4.007 4.897-7.123 5.343l-48.083 4.897 3.562 36.063h-1.781c0.89 2.226 1.336 4.452 1.336 6.678v1.336c0 11.13-8.904 18.254-20.48 18.254h-65.447c0 0 1.336 2.226 1.336 2.226v12.466c0 7.123-7.569 12.021-14.692 12.021h-84.591c-7.569 0.445-12.021-4.452-12.021-11.576v-12.466c0 0-1.336-2.226-1.336-2.226h-61.44c-11.13 0-21.816-7.123-21.816-18.254v-1.336c0-2.226 0.445-4.897 1.336-6.678h-3.117l4.007-44.522h-32.946c-16.028 0-29.384-13.357-29.384-29.384l23.597-138.908c0.445-15.583 13.357-27.603 29.384-27.603h27.158l9.35-107.297c-8.904-1.336-15.583-6.233-15.583-15.583l-13.357-114.866c0-11.13 9.35-20.48 20.48-20.48h233.739c11.13 0 20.48 9.35 20.48 20.48l-13.357 114.866c0 8.904-6.678 13.802-15.583 15.137zM493.746 644.341l32.946-4.007-39.179-56.543 6.233 60.55zM211.478 474.713c-6.233 0-11.576 4.452-11.576 10.685l-23.597 139.353c0.445 5.788 5.343 10.24 11.576 10.24h34.727l14.692-160.278h-25.823zM360.181 231.179c-20.48 0-36.953 16.473-36.953 36.953s16.473 36.953 36.953 36.953 36.953-16.473 36.953-36.953-16.473-36.953-36.953-36.953zM265.795 350.052l-29.83 329.461h243.534l-12.911-126.442-0.445-0.445 0.445-0.445-20.035-202.129h-180.758zM360.626 296.626c-2.671 0-4.452-2.671-4.452-6.233v-45.412c0-3.562 1.781-6.233 4.452-6.233s4.452 2.671 4.452 6.233v45.412c0 3.562-1.781 6.233-4.452 6.233zM819.2 505.878l-321.892-0.89-2.226-16.028 306.31-0.89v-222.609h-299.186l2.226-16.918 314.769-0.89zM507.548 238.748v-26.713h346.379v26.713h-346.379zM641.113 220.939h-66.783v8.904h66.783v-8.904zM322.783 632.765c-3.562 0-6.678-3.117-6.678-6.678v-35.617h-35.617c-3.562 0-6.678-3.117-6.678-6.678s3.117-6.678 6.678-6.678h35.617v-35.617h-35.617c-3.562 0-6.678-3.117-6.678-6.678s3.117-6.678 6.678-6.678h35.617v-40.070h-35.617c-3.562 0-6.678-3.117-6.678-6.678s3.117-6.678 6.678-6.678h35.617v-57.878c0-3.562 3.117-6.678 6.678-6.678s6.678 3.117 6.678 6.678v209.252c0 3.562-3.117 6.678-6.678 6.678z" />
<glyph unicode="&#xe931;" glyph-name="findProducts_electro" d="M511.11 955.103c-279.151 0-505.767-227.061-505.767-505.767s227.061-505.767 505.767-505.767 505.767 227.061 505.767 505.767-227.061 505.767-505.767 505.767zM511.11-38.623c-268.911 0-487.958 219.047-487.958 487.958s218.602 487.958 487.958 487.958 487.958-219.047 487.958-487.958-219.047-487.958-487.958-487.958zM528.918 292.174l0.89-17.809h298.296v244.87h-320.557v-17.809h302.748v-209.252zM862.831 265.461h-333.023v-26.713h333.468l-0.445 26.713zM667.826 247.652h-66.783v8.904h66.783v-8.904zM467.478 675.061h-209.252c-7.569 0-13.357-5.788-13.357-13.357l-35.617-431.861c0-7.569 5.788-13.357 13.357-13.357 0 0 6.678 0 13.357 4.452s8.904 13.357 8.904 13.357h231.513c0 0 3.562-8.904 8.904-13.357s13.357-4.452 13.357-4.452c7.569 0 13.357 5.788 13.357 13.357l-31.165 431.861c0 7.569-5.788 13.357-13.357 13.357zM362.852 639.443c38.289 0 69.009-30.72 69.009-69.009s-30.72-69.009-69.009-69.009-69.009 30.72-69.009 69.009c0 38.289 30.72 69.009 69.009 69.009zM362.852 261.009c-55.207 0-100.174 44.967-100.174 100.174s44.967 100.174 100.174 100.174 100.174-44.967 100.174-100.174c0-55.207-44.967-100.174-100.174-100.174zM414.052 570.435c0-28.277-22.923-51.2-51.2-51.2s-51.2 22.923-51.2 51.2c0 28.277 22.923 51.2 51.2 51.2s51.2-22.923 51.2-51.2zM362.852 425.739c-35.617 0-64.557-28.939-64.557-64.557s28.939-64.557 64.557-64.557 64.557 28.939 64.557 64.557-28.939 64.557-64.557 64.557zM362.852 323.339c-20.925 0-37.843 16.918-37.843 37.843s16.918 37.843 37.843 37.843 37.843-16.918 37.843-37.843-16.918-37.843-37.843-37.843zM166.957 452.897c0 29.384 7.569 58.323 22.261 83.701 1.781 2.671 0.445 6.233-2.226 8.014s-6.233 0.445-8.014-2.226c-15.583-27.158-24.042-57.878-24.042-89.489 0-32.946 8.904-65.002 25.823-92.605 0.89-1.781 3.117-2.671 4.897-2.671 0.89 0 2.226 0.445 3.117 0.89 2.671 1.781 3.562 5.343 1.781 8.014-15.137 25.823-23.597 55.652-23.597 86.372zM124.216 452.897c0 29.384 7.569 58.323 22.261 83.701 1.781 2.671 0.445 6.233-2.226 8.014s-6.233 0.445-8.014-2.226c-15.583-27.158-24.042-57.878-24.042-89.489 0-32.946 8.904-65.002 25.823-92.605 0.89-1.781 3.117-2.671 4.897-2.671 0.89 0 2.226 0.445 3.117 0.89 2.671 1.781 3.562 5.343 1.781 8.014-15.137 25.823-23.597 55.652-23.597 86.372z" />
<glyph unicode="&#xe932;" glyph-name="findProducts_generic_01" d="M511.11 955.103c-279.151 0-505.767-227.061-505.767-505.767s227.061-505.767 505.767-505.767 505.767 227.061 505.767 505.767-227.061 505.767-505.767 505.767zM511.11-38.623c-268.911 0-487.958 219.047-487.958 487.958s218.602 487.958 487.958 487.958 487.958-219.047 487.958-487.958-219.047-487.958-487.958-487.958zM823.652 212.035h-33.391c28.494 20.925 46.748 54.317 46.748 92.16 0 63.221-51.2 114.421-114.421 114.421s-114.421-51.2-114.421-114.421c0-37.843 18.254-71.235 46.748-92.16h-72.125l0.89 273.809c0 32.501-24.042 60.995-48.974 76.132v191.889c0 12.911-11.13 23.597-24.932 23.597h-58.769c-12.911 0-27.603-10.24-27.603-23.597v-190.998c-29.384-15.137-48.974-45.412-48.974-77.468v-28.939h17.809v28.939c0 26.268 17.809 52.090 43.631 63.666l5.343 2.226v202.574c0 1.781 5.343 5.788 9.795 5.788h58.769c3.562 0 7.123-3.117 7.123-5.788v-202.574l4.452-2.671c21.37-11.576 44.522-36.063 44.522-63.221l-0.445-59.659h-75.687v-213.704h-35.617v209.252c0 7.569-5.788 13.357-13.357 13.357h-222.609c-7.569 0-13.357-5.788-13.357-13.357v-209.252h-13.357c-7.569 0-13.357-5.788-13.357-13.357s5.788-13.357 13.357-13.357h632.209c7.569 0 13.357 5.788 13.357 13.357s-5.788 13.357-13.357 13.357zM722.143 399.471c39.624 0 73.906-22.706 88.598-58.323h-177.642c15.137 35.617 49.419 58.323 89.043 58.323zM639.332 256.557h165.621c-12.021-22.261-31.165-37.398-53.871-44.522h-57.878c-22.706 7.123-41.85 22.261-53.871 44.522zM222.609 416.835h213.704v-40.070h-213.704v40.070zM222.609 358.957h213.704v-146.922h-213.704v146.922zM743.513 501.426c0 2.671-1.781 4.452-4.452 4.452h-31.165c-2.671 0-4.452-1.781-4.452-4.452v-62.33c0-2.671 1.781-4.452 4.452-4.452h31.165c2.671 0 4.452 1.781 4.452 4.452v62.33z" />
<glyph unicode="&#xe933;" glyph-name="findProducts_generic_02" d="M511.11 955.103c-279.151 0-505.767-227.061-505.767-505.767s227.061-505.767 505.767-505.767 505.767 227.061 505.767 505.767-227.061 505.767-505.767 505.767zM511.11-38.623c-268.911 0-487.958 219.047-487.958 487.958s218.602 487.958 487.958 487.958 487.958-219.047 487.958-487.958-219.047-487.958-487.958-487.958zM543.165 568.209h289.391c7.569 0 13.357 5.788 13.357 13.357s-5.788 13.357-13.357 13.357h-124.661v97.948c0 7.569-5.788 13.357-13.357 13.357h-151.374c-7.569 0-13.357-5.788-13.357-13.357v-97.948h-80.139c21.816 16.028 35.617 41.85 35.617 70.79 0 42.741-30.72 78.803-71.235 86.817v24.932h8.904c2.226 0 4.452 2.226 4.452 4.452v17.809c0 2.226-2.226 4.452-4.452 4.452h-48.974c-2.226 0-4.452-2.226-4.452-4.452v-17.809c0-2.226 2.226-4.452 4.452-4.452h8.904v-24.042c-42.296-6.678-75.242-43.186-75.242-87.708 0-28.939 14.247-54.762 35.617-70.79h-151.819c-7.569 0-13.357-5.788-13.357-13.357s5.788-13.357 13.357-13.357h351.722zM547.617 688.417h142.47v-22.261h-142.47v22.261zM547.617 648.348h142.47v-53.426h-142.47v53.426zM325.454 665.711c0 39.179 32.056 70.79 70.79 70.79s71.235-31.61 71.235-70.79-32.056-70.79-70.79-70.79-71.235 32.056-71.235 70.79zM845.913 203.13h-62.33v150.929c0 20.48-12.021 39.179-31.165 49.419v115.757c0 10.24-7.123 17.809-16.918 17.809h-22.706c-9.795 0-18.254-8.014-18.254-17.809v-115.311c-18.699-9.795-31.165-29.384-31.165-49.864v-150.929h-49.419c8.459 14.247 19.144 36.508 17.809 59.659-2.226 39.624-49.864 131.784-56.543 144.25-0.445 2.226-1.781 4.452-4.007 6.233-0.445 30.72-28.939 58.769-64.111 58.769s-64.111-28.494-64.111-59.659h0.89c-1.336-1.336-2.671-3.562-3.117-5.343-5.788-12.021-48.083-99.729-51.645-140.243-2.226-26.713 10.24-49.419 20.925-63.666h-52.981l12.466 146.031v0.89c0 7.569-5.788 13.357-13.357 13.357h-57.878v24.042c13.357 4.007 21.816 16.028 21.816 29.384 0 17.363-13.802 31.165-30.72 31.165s-30.275-13.802-30.275-31.165c0-13.357 8.014-24.932 21.37-29.384v-24.042h-62.33c-7.569 0-13.357-6.233-13.357-13.357l12.466-146.922h-21.37c-7.569 0-13.357-5.788-13.357-13.357s5.788-13.357 13.357-13.357h650.017c7.569 0 13.357 5.788 13.357 13.357s-5.788 13.357-13.357 13.357zM276.035 416.835c0 7.569 5.788 13.357 13.357 13.357s13.357-5.788 13.357-13.357-5.788-13.357-13.357-13.357-13.357 5.788-13.357 13.357zM351.277 345.6l-8.459-98.838v9.795h-112.195l-7.569 89.043h128.223zM681.183 354.059c0 15.137 10.24 29.83 25.377 35.617l5.788 2.226v126.442c0 0 0.445 0.445 0.445 0.445h21.816c0 0 0 0 0 0v-127.332l5.343-2.226c15.583-6.233 25.377-20.48 25.377-35.617v-30.72h-66.783v-120.209h-17.809v151.374zM507.548 454.233c24.042 0 43.631-15.137 45.857-37.398h-92.16c2.671 22.261 22.261 37.398 46.303 37.398zM407.374 265.016c3.117 36.508 43.631 120.654 49.864 134.010h102.4c6.233-13.357 52.536-101.51 54.317-137.127 1.336-24.487-14.247-49.419-21.37-58.769h-158.052c-8.459 8.459-29.83 32.501-27.158 61.885zM451.45 679.513h-109.523c-0.89-4.452-1.781-8.904-1.781-13.802 0-31.165 25.377-56.543 56.543-56.543s56.543 25.377 56.543 56.543c-0.445 4.897-0.89 9.35-1.781 13.802z" />
<glyph unicode="&#xe934;" glyph-name="findProducts_kitchen" d="M513.336 957.329c-279.151 0-505.767-227.061-505.767-505.767s227.061-505.767 505.767-505.767 505.767 227.061 505.767 505.767-227.061 505.767-505.767 505.767zM513.336-36.397c-268.911 0-487.958 219.047-487.958 487.958s218.602 487.958 487.958 487.958 487.958-219.047 487.958-487.958-219.047-487.958-487.958-487.958zM466.588 351.833l19.59 197.231 65.892 95.722c1.781 2.671 2.226 6.233 0.89 8.904s-4.007 4.897-7.123 5.343l-48.083 3.562 3.562 34.727h-1.781c0.89 4.452-0.89 6.678-0.89 8.904v1.336c0 11.13-6.678 16.028-18.254 16.028h-65.447c0 0-0.89 4.452-0.89 4.452v12.466c0 7.123-5.343 9.795-12.466 9.795h-84.591c-7.569 0-14.247-2.671-14.247-9.795v-12.021c0 0 0.89-4.452 0.89-4.452h-61.44c-11.13 0-24.042-4.897-24.042-16.028v-1.781c0-2.226 2.671-4.452 3.562-8.904h-3.117l4.007-44.522h-32.946c-16.028 0-29.384-12.021-29.384-28.049l23.597-139.353c0.445-15.583 13.357-28.049 29.384-28.049h27.158l9.35-105.962c-8.904-1.336-15.583-5.788-15.583-15.137l-13.357-115.757c0-11.13 9.35-21.37 20.48-21.37h233.739c11.13 0 20.48 10.24 20.48 21.816l-13.357 115.311c0 8.904-6.678 14.247-15.583 15.583zM495.972 646.567l32.946-4.007-39.179-56.543 6.233 60.55zM213.704 474.713c-6.233 0-11.576 5.343-11.576 11.576l-23.597 138.908c0.445 5.788 5.343 9.795 11.576 9.795h34.727l14.692-160.278h-25.823zM362.407 233.405c-20.48 0-36.953 16.473-36.953 36.953s16.473 36.953 36.953 36.953 36.953-16.473 36.953-36.953-16.473-36.953-36.953-36.953zM268.021 350.052l-29.83 329.461h243.534l-12.911-125.551h-0.445l0.445-1.336-20.035-202.574h-180.758zM360.626 298.852c-2.671 0-4.452-2.671-4.452-6.233v-45.412c0-3.562 1.781-6.233 4.452-6.233s4.452 2.671 4.452 6.233v45.412c0 3.562-1.781 6.233-4.452 6.233zM322.783 634.991c-3.562 0-6.678-3.117-6.678-6.678v-37.843h-33.391c-3.562 0-6.678-3.117-6.678-6.678s3.117-6.678 6.678-6.678h33.391v-35.617h-33.391c-3.562 0-6.678-3.117-6.678-6.678s3.117-6.678 6.678-6.678h33.391v-40.070h-33.391c-3.562 0-6.678-3.117-6.678-6.678s3.117-6.678 6.678-6.678h33.391v-55.652c0-3.562 3.117-6.678 6.678-6.678s6.678 3.117 6.678 6.678v209.252c0 3.562-3.117 6.678-6.678 6.678zM841.461 416.835l-26.713-13.357v17.809h-284.939v-17.809l-26.713 13.357c-7.569 0-12.466-3.117-13.357-8.904s4.452-8.904 4.452-8.904l35.617-17.809v-169.183c0-7.569 5.788-13.357 13.357-13.357h258.226c7.569 0 13.357 5.788 13.357 13.357v169.183l35.617 17.809c0 0 4.452 4.897 4.452 8.904s-5.788 8.904-13.357 8.904zM614.4 216.487h-66.783v186.991h66.783v-186.991zM545.837 434.643h251.103c0 13.357-40.515 28.049-94.831 31.165l4.452 25.823v1.336c0 9.795-8.014 17.809-17.809 17.809h-29.83c-9.795 0-17.809-8.014-17.809-17.809l4.452-26.268c-56.988-3.562-99.729-18.699-99.729-32.056zM688.306 492.522l-4.007-25.377v-1.336h-20.925l-4.452 26.713h29.384z" />
<glyph unicode="&#xe935;" glyph-name="findProducts_sporting" d="M513.781 955.548c-278.706 0-505.767-227.061-505.767-505.767s227.061-505.767 505.767-505.767 505.767 227.061 505.767 505.767-227.061 505.767-505.767 505.767zM513.781-38.177c-268.911 0-487.958 219.047-487.958 487.958s219.047 487.958 487.958 487.958 487.958-219.047 487.958-487.958-219.047-487.958-487.958-487.958zM182.094 562.866l70.344-77.913 19.144 19.59-69.899 73.906zM660.703 488.96l73.906 77.468-19.59 15.583-73.906-77.468zM512 325.565c0 46.303 48.529 86.817 103.29 109.078l2.671 93.050 11.576-7.569 69.899 77.913c0 0-30.275 33.837-46.748 46.748-16.473 12.466-40.070 25.377-93.496 31.165s-177.197 4.452-210.143 0c-35.172-4.897-63.221-19.59-81.475-35.172-17.363-14.692-46.748-42.741-46.748-42.741l69.899-77.913 11.576 7.569 7.569-280.042h247.541c-26.713 21.37-45.412 48.529-45.412 77.913zM380.661 655.917c3.117 4.897 152.71 6.678 155.381 0s-56.543-50.755-73.906-50.755-86.372 43.186-81.475 50.755zM471.93 407.93h-22.261v89.043h-17.809v13.357c0 0 9.795-1.336 17.809 4.452s9.795 13.357 9.795 13.357h12.466v-120.209zM698.546 436.87c-93.050 0-171.854-68.563-171.854-111.304 0-23.151 19.59-51.2 51.645-73.461 35.172-24.487 77.913-37.843 120.209-37.843 94.831 0 171.854 67.228 171.854 111.304 0 42.741-78.803 111.304-171.854 111.304zM698.546 232.070c-89.043 0-154.045 61.44-154.045 93.496 0 28.049 65.002 93.496 154.045 93.496s154.045-65.447 154.045-93.496c0-31.165-66.783-93.496-154.045-93.496zM743.513 354.504h-17.809v-22.261h-17.809v22.261h-17.809v-22.261h-17.809v22.261h-17.809v-22.261h-22.261v-17.809h22.261v-22.261h17.809v22.261h17.809v-22.261h17.809v22.261h17.809v-22.261h17.809v22.261h22.261v17.809h-22.261z" />
<glyph unicode="&#xe936;" glyph-name="findProducts_women_01" d="M526.692 247.207c-61.44 22.706-65.002 31.165-65.002 31.165s-3.117-8.459-25.823-11.576c-22.706-3.117-83.256-5.343-217.266 155.826-16.028 19.59-45.412 16.028-45.412 16.028s-17.809-16.028-17.809-74.351c0-32.946 8.904-45.857 22.261-85.037 1.336-3.562 2.226-9.35 3.562-16.473-6.678-5.788-11.13-14.247-11.13-23.597 0-11.576 6.678-21.816 16.473-27.158 2.226-26.268 3.117-49.419 3.117-49.419h24.042c0 0 0 22.706 0 48.974 10.24 4.897 17.363 15.583 17.363 27.603s-7.123 22.706-17.363 27.603c0 9.795 0 17.363 0 19.144 0 9.795 8.904 24.487 28.494 8.459s73.461-103.29 102.845-103.29 201.238 0.445 201.238 0.445 73.461 21.816-19.59 55.652zM541.83 180.87h-193.224c-3.117 0-5.788-2.671-5.788-5.788v-6.233c0-3.117 2.671-5.788 5.788-5.788h193.224c3.117 0 5.788 2.671 5.788 5.788v6.233c0 3.117-2.671 5.788-5.788 5.788zM724.814 577.113h-58.769l-0.445 84.146c0 57.878-47.638 106.407-103.736 106.407-57.878 0-103.736-43.631-103.736-99.729v-90.824h-60.104c-19.144 0-34.727-16.028-35.172-35.617l-31.165-202.574 16.918-12.911 17.809 113.53h129.113c16.918-33.391 67.228-77.023 67.228-77.023s49.864 43.186 66.783 77.023h127.332l35.617-228.397c0-16.473-4.452-16.473-7.569-16.473h-181.203l-16.028-17.809h197.231c12.021 0 25.823 4.897 25.823 35.172l-51.2 329.461c-0.445 19.59-15.583 35.617-34.727 35.617zM476.383 668.383c0 45.857 37.843 81.92 85.927 81.92 46.303 0 85.927-40.515 85.927-89.043l0.445-84.146h-172.299v91.27zM634.435 456.904c3.562 30.72-17.363 37.398-32.946 39.179-13.357 1.336-35.617-6.678-39.624-28.494-4.007 21.37-26.268 29.83-39.624 28.494-16.028-1.781-36.508-8.459-32.946-39.179h-120.209l12.911 81.92v2.226c0 9.35 7.123 18.254 16.028 18.254h326.79c8.904 0 14.247-9.795 14.247-19.144v-0.89l14.692-82.365h-119.318zM511.11 955.103c-279.151 0-505.767-227.061-505.767-505.767s227.061-505.767 505.767-505.767 505.767 227.061 505.767 505.767-226.616 505.767-505.767 505.767zM511.11-38.623c-268.911 0-487.958 219.047-487.958 487.958s218.602 487.958 487.958 487.958c268.911 0 487.958-219.047 487.958-487.958s-219.047-487.958-487.958-487.958z" />
<glyph unicode="&#xe937;" glyph-name="findProducts_women_02" d="M511.11 955.103c-279.151 0-505.767-227.061-505.767-505.767s227.061-505.767 505.767-505.767 505.767 227.061 505.767 505.767-226.616 505.767-505.767 505.767zM511.11-38.623c-268.911 0-487.958 219.047-487.958 487.958s218.602 487.958 487.958 487.958c268.911 0 487.958-219.047 487.958-487.958s-219.047-487.958-487.958-487.958zM445.217 465.809v26.713c0 46.748-40.96 86.372-89.043 86.372-48.974 0-89.043-36.953-89.043-82.81v-30.72h-66.337c0 0-69.899-152.71-70.344-197.677-0.445-54.762 70.344-60.104 70.344-60.104h304.083c0 0 70.344 1.336 71.235 65.892 0.89 43.186-71.68 192.334-71.68 192.334h-59.214zM284.939 496.529c0 35.617 32.056 65.002 71.235 65.002 37.843 0 71.235-32.056 71.235-68.563v-26.713h-142.47v30.275zM275.144 374.094c-20.48 0-36.953 16.473-36.953 36.953 0 17.809 12.466 32.501 29.384 36.508v-17.363c-7.123-3.117-12.466-10.685-12.466-19.144 0-11.576 9.35-20.925 20.925-20.925s20.925 9.35 20.925 20.925c0 8.014-4.452 15.137-11.576 18.699v17.809c15.583-4.452 27.158-18.699 27.158-35.617-0.445-20.925-16.918-37.843-37.398-37.843zM437.203 372.313c-20.925 0-38.289 16.918-38.289 38.289 0 17.809 12.021 32.501 28.049 36.953v-17.363c-7.123-3.562-12.021-10.685-12.021-18.699 0-11.576 9.35-20.925 20.925-20.925s20.925 9.35 20.925 20.925c0 8.459-4.897 15.583-12.021 18.699v17.809c17.363-3.562 30.275-19.144 30.275-37.398 0.445-21.37-16.473-38.289-37.843-38.289zM843.242 566.873c-0.445 18.254-14.247 32.501-32.056 32.501h-45.412l-0.445 72.125c0 54.317-44.522 101.064-97.503 101.064-54.762 0-97.503-40.96-97.503-93.941v-79.249h-66.337c-17.809 0-32.501-14.247-32.946-32.501l-11.576-74.351 4.007-4.452h143.805c5.343-26.268 56.543-70.79 56.543-70.79s51.2 44.522 56.097 70.79h118.428l36.063-230.177c0-15.583-4.007-14.692-7.123-14.692h-270.692l-13.357-17.809h284.049c11.576 0 23.151 4.007 23.151 32.056v0.89l-47.193 308.536zM587.687 678.177c0 43.186 35.172 76.577 79.694 76.577 43.186 0 79.694-38.734 79.694-83.256l0.89-72.125h-160.278v78.803zM719.026 505.433v0c-4.007 12.466-15.583 15.583-24.932 16.918-9.35 0.89-23.597-4.007-29.384-16.473h-3.562c-5.343 12.466-20.035 17.363-29.384 16.473s-20.925-4.452-24.932-16.473h-128.223l9.35 59.214v0.89c0 8.904 6.678 15.583 15.137 15.583h307.645c8.459 0 17.363-6.233 17.363-15.137v-0.89l7.123-60.104h-116.202z" />
<glyph unicode="&#xe938;" glyph-name="findProducts" d="M515.562 955.103c-279.151 0-505.767-227.061-505.767-505.767s227.061-505.767 505.767-505.767 505.767 227.061 505.767 505.767-227.061 505.767-505.767 505.767zM515.562-38.623c-268.911 0-487.958 219.047-487.958 487.958s218.602 487.958 487.958 487.958 487.958-219.047 487.958-487.958-219.047-487.958-487.958-487.958zM535.597 256.111c-61.44 22.706-65.002 31.165-65.002 31.165s-3.117-8.459-25.823-11.576-83.256-5.343-217.266 155.826c-16.028 19.59-45.412 16.028-45.412 16.028s-17.809-16.028-17.809-74.351c0-32.946 8.904-45.857 22.261-85.037 0.445-1.336 0.89-3.562 1.336-5.343-8.014-5.343-13.357-14.692-13.357-25.377 0-13.357 8.459-24.487 20.035-28.939 2.226-28.939 3.562-56.543 3.562-56.543h24.487c0 0 0 29.83 0 60.55 8.014 5.343 12.911 14.692 12.911 24.932s-5.343 19.59-12.911 24.932c0 6.678 0 11.13 0 12.911 0 9.795 8.904 24.487 28.494 8.459s73.461-98.838 102.845-98.838c29.384 0 201.238 0.445 201.238 0.445s73.461 16.918-19.59 50.755zM550.734 189.774h-193.224c-3.117 0-5.788-2.671-5.788-5.788v-6.233c0-3.117 2.671-5.788 5.788-5.788h193.224c3.117 0 5.788 2.671 5.788 5.788v6.233c0 3.117-2.671 5.788-5.788 5.788zM797.83 719.583h-73.016l-21.37 21.37c-1.781 1.781-4.452 2.671-7.123 2.671v0l-239.972 2.226 0.89-0.89c-1.781 0-3.562-0.89-5.343-2.226l-24.932-22.261c-0.445-0.445-0.445-0.89-0.89-0.89h-64.111c-12.911 0-23.597-10.24-23.597-23.151v-343.708l17.809-16.028v360.626c0 2.671 3.562 4.452 6.678 4.452h63.666l30.275-138.463c0.445-2.671 2.671-5.343 5.343-6.233 1.336-0.445 2.226-0.89 3.562-0.89 1.781 0 3.117 0.445 4.452 1.336l66.783 40.515 31.61-24.932-16.028-68.118 52.090 43.186-3.562 24.932 23.597 25.377 61.885-40.515c1.336-0.89 3.117-1.336 4.897-1.336 1.336 0 2.226 0 3.562 0.89 2.671 1.336 4.897 3.562 5.343 6.233l29.384 138.463h67.228c3.117 0 4.452-1.781 4.452-4.452v-471.93c0-2.671-1.336-4.452-4.452-4.452h-186.991c0 0-0.89-4.452-4.452-8.904s-13.357-8.904-13.357-8.904h204.8c12.911 0 22.261 9.35 22.261 22.261v471.485c0 12.911-8.459 22.261-21.37 22.261zM471.93 579.339l-28.939 131.339 15.583 13.802 105.517-89.489-92.16-55.652zM685.19 579.784l-83.256 55.207 95.277 87.708 15.137-15.583-27.158-127.332zM544.946 469.816l-9.795-56.988 84.591 65.447-6.678 44.522zM511.555 301.969l119.763 90.379-9.35 60.995-92.16-72.125zM636.661 364.299l-102.4-78.358 65.447-39.624 56.097 37.843z" />
<glyph unicode="&#xe939;" glyph-name="generate_label_30" d="M512 273.92h44.373v-85.333h-44.373v85.333zM512 925.867h44.373v-610.987h-44.373v610.987zM382.293 273.92h85.333v-85.333h-85.333v85.333zM597.333 273.92h85.333v-85.333h-85.333v85.333zM256 925.867h85.333v-737.28h-85.333v737.28zM382.293 925.867h85.333v-610.987h-85.333v610.987zM597.333 925.867h85.333v-610.987h-85.333v610.987zM808.96 925.867h85.333v-610.987h-85.333v610.987zM938.667 925.867h85.333v-737.28h-85.333v737.28zM808.96 273.92h85.333v-85.333h-85.333v85.333zM723.627 273.92h44.373v-85.333h-44.373v85.333zM723.627 925.867h44.373v-610.987h-44.373v610.987zM180.907 133.973v-68.267h88.747l-30.72-30.72c-40.96-40.96-102.4-44.373-143.36-3.413-37.547 37.547-37.547 102.4 3.413 143.36 23.893 23.893 51.2 34.133 78.507 34.133h17.067l3.413 64.853h-17.067c-44.373 3.413-95.573-17.067-129.707-51.2-68.267-68.267-68.267-174.080-3.413-238.933s170.667-61.44 235.52 3.413l34.133 34.133v-88.747l64.853 3.413v197.973h-201.387z" />
<glyph unicode="&#xe93a;" glyph-name="gift_30" d="M723.627 652.8c68.267 58.027 116.053 143.36 92.16 184.32-27.307 44.373-129.707 20.48-208.213-37.547-51.2-37.547-88.747-88.747-98.987-129.707-10.24 40.96-44.373 92.16-98.987 129.707-78.507 58.027-170.667 81.92-197.973 37.547-23.893-37.547 13.653-126.293 81.92-184.32h-191.147v-648.533h819.2v648.533h-197.973zM634.88 744.96c44.373 34.133 105.813 61.44 116.053 44.373s-34.133-71.68-81.92-105.813c-20.48-13.653-40.96-23.893-58.027-30.72h-40.96c0 0 0 0-3.413 3.413-6.827 13.653 20.48 54.613 68.267 88.747zM344.747 683.52c-44.373 34.133-78.507 88.747-68.267 105.813s61.44-13.653 105.813-47.787c44.373-34.133 75.093-75.093 64.853-92.16 0 0 0 0 0 0h-40.96c-20.48 10.24-40.96 20.48-61.44 34.133zM853.333 379.733h-307.2v-307.2h-68.267v307.2h-307.2v68.267h307.2v136.533h68.267v-136.533h307.2v-68.267z" />
<glyph unicode="&#xe93b;" d="M935.253 311.467c-30.72 20.48-71.68 34.133-112.64 34.133-112.64 0-201.387-92.16-201.387-201.387 0-40.96 10.24-78.507 30.72-109.227l283.307 276.48z" />
<glyph unicode="&#xe93c;" d="M986.453 260.267l-286.72-279.893c34.133-23.893 75.093-40.96 119.467-40.96 112.64 0 201.387 92.16 201.387 201.387 3.413 44.373-10.24 85.333-34.133 119.467z" />
<glyph unicode="&#xe93d;" d="M819.2 413.867v273.067h-194.56c68.267 68.267 116.053 139.947 92.16 180.907-27.307 40.96-129.707 17.067-208.213-37.547-54.613-40.96-88.747-88.747-98.987-133.12-10.24 44.373-47.787 92.16-98.987 129.707-78.507 58.027-170.667 85.333-197.973 44.373-23.893-40.96 13.653-116.053 81.92-184.32h-194.56v-648.533h566.613c-13.653 30.72-20.48 64.853-20.48 102.4 0 150.187 122.88 273.067 273.067 273.067zM532.48 775.68c44.373 34.133 105.813 61.44 116.053 44.373s-34.133-68.267-81.92-102.4c-17.067-17.067-40.96-30.72-54.613-30.72h-44.373c0 0-17.067 23.893 64.853 88.747zM177.493 820.053c10.24 17.067 61.44-10.24 105.813-44.373 88.747-68.267 64.853-88.747 64.853-88.747h-44.373c-17.067 0-37.547 13.653-58.027 30.72-44.373 34.133-78.507 88.747-68.267 102.4zM443.733 106.667h-68.267v307.2h-307.2v68.267h307.2v136.533h68.267v-136.533h307.2v-68.267h-307.2v-307.2z" />
<glyph unicode="&#xe93e;" d="M348.16 683.52c20.48-17.067 40.96-30.72 58.027-30.72h44.373c0 0 23.893 17.067-64.853 88.747-44.373 34.133-95.573 61.44-105.813 44.373s23.893-68.267 68.267-102.4z" />
<glyph unicode="&#xe93f;" d="M573.44 652.8h51.2c13.653 0 40.96 20.48 61.44 37.547 44.373 34.133 81.92 78.507 71.68 95.573s-68.267-6.827-109.227-40.96c-98.987-71.68-78.507-92.16-75.093-92.16z" />
<glyph unicode="&#xe940;" d="M546.133 584.533h-68.267v-136.533h-307.2v-68.267h307.2v-307.2h68.267v307.2h307.2v68.267h-307.2z" />
<glyph unicode="&#xe941;" d="M870.4 721.067c27.307 54.613 27.307 105.813 3.413 146.773-13.653 20.48-44.373 54.613-112.64 54.613-58.027 0-133.12-27.307-194.56-71.68-20.48-17.067-40.96-34.133-58.027-51.2-17.067 20.48-37.547 37.547-58.027 51.2-61.44 47.787-126.293 75.093-184.32 75.093-47.787 0-88.747-20.48-109.227-54.613-27.307-44.373-27.307-95.573 0-150.187h-122.88v-785.067h955.733v785.067h-119.467zM921.6 4.267h-819.2v648.533h194.56c-68.267 68.267-102.4 139.947-81.92 180.907 27.307 47.787 119.467 17.067 197.973-40.96 54.613-37.547 88.747-85.333 98.987-126.293 10.24 40.96 54.613 102.4 109.227 136.533 85.333 54.613 174.080 68.267 197.973 30.72 23.893-40.96-23.893-112.64-92.16-180.907h194.56v-648.533z" />
<glyph unicode="&#xe942;" d="M727.040 652.8c68.267 68.267 116.053 139.947 92.16 180.907-27.307 40.96-129.707 17.067-208.213-37.547-54.613-40.96-88.747-88.747-98.987-133.12-10.24 40.96-44.373 88.747-98.987 129.707-78.507 58.027-170.667 85.333-197.973 44.373-23.893-40.96 13.653-116.053 81.92-184.32h-194.56v-648.533h819.2v648.533h-194.56zM634.88 741.547c44.373 34.133 105.813 61.44 116.053 44.373s-34.133-68.267-81.92-102.4c-17.067-17.067-40.96-30.72-54.613-30.72h-44.373c0 0-17.067 23.893 64.853 88.747zM348.16 683.52c-44.373 34.133-78.507 88.747-68.267 105.813s61.44-13.653 105.813-47.787c88.747-68.267 64.853-88.747 64.853-88.747h-44.373c-17.067 0-37.547 13.653-58.027 30.72zM853.333 379.733h-307.2v-307.2h-68.267v307.2h-307.2v68.267h307.2v136.533h68.267v-136.533h307.2v-68.267z" />
<glyph unicode="&#xe943;" glyph-name="Help-help_30" d="M641.707 683.52c-30.72 30.72-75.093 44.373-129.707 44.373-51.2 0-92.16-13.653-122.88-40.96s-51.2-68.267-58.027-119.467v-6.827l81.92-10.24v6.827c6.827 34.133 17.067 61.44 34.133 78.507s37.547 23.893 64.853 23.893c27.307 0 47.787-10.24 64.853-27.307s27.307-37.547 27.307-61.44c0-13.653-3.413-23.893-10.24-34.133s-20.48-27.307-40.96-44.373c-23.893-20.48-37.547-37.547-47.787-47.787-13.653-13.653-20.48-30.72-27.307-44.373-6.827-20.48-10.24-40.96-10.24-64.853 0-3.413 0-10.24 0-20.48v-6.827h78.507v6.827c0 23.893 3.413 37.547 6.827 51.2 3.413 10.24 6.827 20.48 13.653 27.307 6.827 10.24 20.48 23.893 40.96 40.96 34.133 30.72 54.613 54.613 64.853 75.093s17.067 44.373 17.067 68.267c3.413 40.96-13.653 75.093-47.787 105.813v0zM471.040 250.027h85.333v-85.333h-85.333v85.333zM512 925.867c-262.827 0-477.867-215.040-477.867-477.867s215.040-477.867 477.867-477.867 477.867 215.040 477.867 477.867-215.040 477.867-477.867 477.867zM512 38.4c-225.28 0-409.6 184.32-409.6 409.6s184.32 409.6 409.6 409.6 409.6-184.32 409.6-409.6-184.32-409.6-409.6-409.6z" />
<glyph unicode="&#xe944;" glyph-name="History-Log-30px" d="M170.667 789.333h273.067v-34.133h-273.067zM170.667 686.933h273.067v-34.133h-273.067zM170.667 584.533h273.067v-34.133h-273.067zM170.667 482.133h273.067v-34.133h-273.067zM170.667 379.733h204.8v-34.133h-204.8zM358.4 277.333h-256v580.267h409.6v-314.027c20.48 13.653 44.373 23.893 68.267 34.133v348.16h-546.133v-716.8h327.68c-3.413 17.067-3.413 34.133-3.413 51.2v17.067zM699.733 550.4c-160.427 0-290.133-129.707-290.133-290.133s129.707-290.133 290.133-290.133 290.133 129.707 290.133 290.133-129.707 290.133-290.133 290.133zM699.733 38.4c-122.88 0-221.867 98.987-221.867 221.867s98.987 221.867 221.867 221.867 221.867-98.987 221.867-221.867-98.987-221.867-221.867-221.867zM716.8 413.867h-34.133v-204.8h136.533v34.133h-102.4z" />
<glyph unicode="&#xe945;" glyph-name="home_30" d="M512 960l-477.867-477.867 102.4-102.4v-443.733h750.933v443.733l102.4 102.4-477.867 477.867zM819.2 4.267h-614.4v443.733l307.2 307.2 307.2-307.2v-443.733zM580.267 448c0-37.703-30.564-68.267-68.267-68.267s-68.267 30.564-68.267 68.267c0 37.703 30.564 68.267 68.267 68.267s68.267-30.564 68.267-68.267z" />
<glyph unicode="&#xe946;" glyph-name="idCustomer_30" d="M853.333 243.2h34.133v-170.667h-34.133v170.667zM785.067 243.2h34.133v-170.667h-34.133v170.667zM716.8 243.2h34.133v-170.667h-34.133v170.667zM648.533 243.2h34.133v-170.667h-34.133v170.667zM682.667 345.6c-17.067 44.373-139.947 47.787-187.733 95.573-23.893 23.893-27.307 44.373-27.307 44.373 51.2 10.24 92.16 122.88 92.16 221.867 0 109.227-61.44 184.32-167.253 184.32-116.053 0-177.493-75.093-177.493-184.32 0-92.16 37.547-191.147 102.4-225.28 3.413 0-3.413-23.893-30.72-44.373-58.027-40.96-163.84-51.2-191.147-88.747-34.133-47.787-27.307-208.213-27.307-208.213h170.667v-170.667h750.933v375.467c0 0-307.2 0-307.2 0zM921.6 38.4h-614.4v238.933h614.4v-238.933z" />
<glyph unicode="&#xe947;" glyph-name="identify_customer" d="M324.118 486.734c0.89 0 2.226 0.445 3.117 0.89 2.671 1.781 3.562 5.343 1.781 8.014-15.583 26.268-24.042 56.097-24.042 86.817 0 29.384 7.569 58.323 22.261 83.701 1.781 2.671 0.445 6.233-2.226 8.014s-6.233 0.445-8.014-2.226c-15.583-27.158-24.042-57.878-24.042-89.489 0-32.946 8.904-65.002 25.823-92.605 1.336-2.226 3.562-3.117 5.343-3.117zM619.297 488.96c0.89-0.445 1.781-0.89 3.117-0.89 1.781 0 4.007 0.89 4.897 2.671 16.028 27.603 24.932 58.769 24.932 91.27 0 31.165-8.014 61.885-23.597 89.043-1.781 2.671-5.343 3.562-8.014 2.226-2.671-1.781-3.562-5.343-2.226-8.014 14.247-25.377 21.816-53.871 21.816-83.256 0-29.83-8.014-59.659-23.151-85.037-1.781-2.671-0.89-6.233 2.226-8.014zM262.233 582.010c0 29.384 7.569 58.323 22.261 83.701 1.781 2.671 0.445 6.233-2.226 8.014s-6.233 0.445-8.014-2.226c-15.583-27.158-24.042-57.878-24.042-89.489 0-32.946 8.904-65.002 25.823-92.605 0.89-1.781 3.117-2.671 4.897-2.671 0.89 0 2.226 0.445 3.117 0.89 2.671 1.781 3.562 5.343 1.781 8.014-15.137 25.823-23.597 55.652-23.597 86.372zM662.038 488.96c0.89-0.445 1.781-0.89 3.117-0.89 1.781 0 4.007 0.89 4.897 2.671 16.028 27.603 24.932 58.769 24.932 91.27 0 31.165-8.014 61.885-23.597 89.043-1.781 2.671-5.343 3.562-8.014 2.226-2.671-1.781-3.562-5.343-2.226-8.014 14.247-25.377 21.816-53.871 21.816-83.256 0-29.83-8.014-59.659-23.151-85.037-1.336-2.671-0.445-6.233 2.226-8.014zM515.562 950.65c-279.151 0-505.767-227.061-505.767-505.767s227.061-505.767 505.767-505.767 505.767 227.061 505.767 505.767-227.061 505.767-505.767 505.767zM515.562-43.075c-268.911 0-487.958 219.047-487.958 487.958s218.602 487.958 487.958 487.958 487.958-219.047 487.958-487.958-219.047-487.958-487.958-487.958zM774.678 332.243h8.904v-111.304h-8.904v111.304zM734.609 332.243h17.809v-111.304h-17.809v111.304zM707.896 332.243h17.809v-111.304h-17.809v111.304zM685.635 332.243l-13.357-0.445v-110.859h13.357zM533.816 443.993c-13.357 14.692-16.028 24.487-15.137 24.487 28.939 5.343 53.426 70.344 53.426 126.887 0 62.33-34.727 106.407-96.167 106.407-67.673 0-102.845-44.077-102.845-106.407 0-52.981 20.925-109.078 59.659-129.113 1.781-0.89-2.226-14.247-17.809-25.377-32.501-22.706-94.386-29.83-109.969-52.090-19.59-27.603-15.137-119.318-15.137-119.318h93.050v-97.948h448.779l0.89 204.8c0 0-190.553 0-190.108 0 1.781 30.275-82.81 39.179-108.633 67.673zM814.748 189.774h-414.052l-0.89 169.183h414.943v-169.183zM765.329 220.939l0.445 111.304h-4.452v-111.304zM698.991 220.939v110.859l-4.007 0.445v-111.304z" />
<glyph unicode="&#xe948;" glyph-name="image_notAvailable" d="M788.48 758.613c-71.68 58.027-167.253 95.573-266.24 95.573-235.52 0-426.667-191.147-426.667-423.253 0-98.987 34.133-187.733 88.747-259.413l604.16 587.093zM843.093 704l-604.16-590.507c75.093-68.267 174.080-109.227 283.307-109.227 235.52 0 423.253 191.147 423.253 423.253 0 105.813-37.547 204.8-102.4 276.48z" />
<glyph unicode="&#xe949;" glyph-name="info_tips_30" d="M849.92 782.507c184.32-184.32 184.32-488.107 0-672.427s-488.107-184.32-672.427 0-184.32 488.107 0 672.427 488.107 187.733 672.427 0zM443.733 516.267v-341.333h136.533v341.333h-136.533zM443.733 755.2v-136.533h136.533v136.533h-136.533z" />
<glyph unicode="&#xe94a;" glyph-name="information_30" d="M580.267 516.267h-204.8v-68.267h68.267v-204.8h-68.267v-68.267h273.067v68.267h-68.267zM580.267 652.8c0-37.703-30.564-68.267-68.267-68.267s-68.267 30.564-68.267 68.267c0 37.703 30.564 68.267 68.267 68.267s68.267-30.564 68.267-68.267zM512 925.867c-262.827 0-477.867-215.040-477.867-477.867s215.040-477.867 477.867-477.867 477.867 215.040 477.867 477.867-215.040 477.867-477.867 477.867zM512 38.4c-225.28 0-409.6 184.32-409.6 409.6s184.32 409.6 409.6 409.6 409.6-184.32 409.6-409.6-184.32-409.6-409.6-409.6z" />
<glyph unicode="&#xe94b;" glyph-name="inProgress" d="M224 960h544v-160h-544v160zM224 672h544v-160h-544v160zM224 384h544v-160h-544v160zM224 96h544v-160h-544v160z" />
<glyph unicode="&#xe94c;" glyph-name="inStore_Available30" d="M853.333 400.213c0 3.413-58.027 218.453-58.027 218.453h-580.267c0 0-68.267-211.627-68.267-215.040 0-44.373 20.48-85.333 64.853-92.16 6.827 0 13.653 0 17.067 0v0-375.467h546.133v372.053c47.787 3.413 78.507 44.373 78.507 92.16zM682.667 577.707l23.893-167.253c0-37.547-30.72-61.44-68.267-61.44-3.413 0-6.827 0-10.24 0-30.72 3.413-51.2 27.307-54.613 58.027v170.667c0 0 109.227 0 109.227 0zM317.44 577.707h116.053v-167.253c0-37.547-30.72-61.44-68.267-61.44-3.413 0-6.827 0-10.24 0-27.307 3.413-47.787 20.48-54.613 47.787l17.067 180.907zM621.227 4.267v0 245.76c0 6.827-6.827 10.24-10.24 10.24h-211.627c-6.827 0-10.24-6.827-10.24-10.24v-245.76h-92.16v334.507c13.653-13.653 30.72-23.893 51.2-27.307 3.413 0 10.24 0 13.653 0 27.307 0 51.2 10.24 68.267 30.72 17.067-17.067 40.96-30.72 68.267-30.72s51.2 10.24 68.267 30.72c13.653-17.067 34.133-27.307 54.613-30.72 3.413 0 10.24 0 13.653 0 27.307 0 51.2 10.24 68.267 30.72l3.413-3.413v-334.507h-85.333z" />
<glyph unicode="&#xe94d;" glyph-name="inStore_notAvailable30" d="M863.573 383.147c0 3.413-58.027 208.213-58.027 208.213h-580.267c0 0-68.267-204.8-68.267-208.213 0-44.373 20.48-78.507 64.853-88.747h3.413c3.413 0 10.24 0 13.653 0v0-358.4h542.72v365.227c51.2 0 81.92 34.133 81.92 81.92zM413.013-29.867v235.52h201.387v-235.52h-201.387zM648.533-29.867v242.347c0 17.067-13.653 27.307-27.307 27.307h-211.627c-17.067 0-27.307-13.653-27.307-27.307v-242.347h-109.227v334.507c13.653 6.827 23.893 13.653 34.133 23.893 13.653-17.067 34.133-27.307 54.613-30.72 3.413 0 10.24 0 13.653 0 27.307 0 51.2 10.24 68.267 30.72 17.067-17.067 40.96-30.72 68.267-30.72s51.2 10.24 68.267 30.72c13.653-17.067 34.133-27.307 54.613-30.72 3.413 0 10.24 0 13.653 0 27.307 0 51.2 10.24 68.267 30.72 10.24-10.24 23.893-20.48 37.547-23.893v-334.507h-105.813zM781.653 335.36c-17.067 0-30.72 6.827-40.96 20.48l-27.307 23.893-23.893-27.307c-10.24-13.653-27.307-20.48-40.96-20.48-3.413 0-6.827 0-6.827 0-13.653 3.413-23.893 6.827-34.133 17.067l-23.893 27.307-27.307-27.307c-10.24-13.653-27.307-20.48-44.373-20.48s-30.72 6.827-40.96 20.48l-30.72 30.72-23.893-27.307c-10.24-13.653-27.307-20.48-40.96-20.48h-3.413c-3.413 0-3.413 0-6.827 0-13.653 3.413-23.893 6.827-34.133 17.067l-23.893 30.72-27.307-27.307c-10.24-13.653-27.307-20.48-44.373-20.48-3.413 0-6.827 0-10.24 0 0 0 0 0-3.413 0-23.893 3.413-34.133 20.48-34.133 51.2 6.827 20.48 34.133 109.227 58.027 177.493h529.067c20.48-68.267 44.373-160.427 51.2-180.907 0-30.72-13.653-44.373-44.373-44.373z" />
<glyph unicode="&#xe94e;" glyph-name="loading_portal" d="M221.867 140.8l42.667 42.667c17.067 17.067 42.667 17.067 55.467 0l42.667-42.667c17.067-17.067 17.067-42.667 0-55.467l-42.667-42.667c-17.067-17.067-42.667-17.067-55.467 0l-42.667 42.667c-17.067 17.067-17.067 42.667 0 55.467zM448 140.8l42.667 42.667c17.067 17.067 42.667 17.067 55.467 0l42.667-42.667c17.067-17.067 17.067-42.667 0-55.467l-42.667-42.667c-17.067-17.067-42.667-17.067-55.467 0l-42.667 42.667c-17.067 17.067-17.067 42.667 0 55.467zM669.867 140.8l42.667 42.667c17.067 17.067 42.667 17.067 55.467 0l42.667-42.667c17.067-17.067 17.067-42.667 0-55.467l-42.667-42.667c-17.067-17.067-42.667-17.067-55.467 0l-42.667 42.667c-12.8 17.067-12.8 42.667 0 55.467z" />
<glyph unicode="&#xe94f;" glyph-name="location_pin_30" d="M512 898.56c71.68 0 143.36-34.133 194.56-95.573 54.613-64.853 85.333-150.187 85.333-238.933 0-105.813-44.373-194.56-88.747-262.827l-191.147-286.72-187.733 286.72c-40.96 68.267-92.16 157.013-92.16 262.827 0 92.16 30.72 177.493 85.333 238.933 51.2 61.44 122.88 95.573 194.56 95.573zM512 960c-95.573 0-180.907-44.373-242.347-116.053s-98.987-170.667-98.987-279.893c0-116.053 47.787-215.040 98.987-296.96l204.8-310.613c6.827-13.653 20.48-20.48 34.133-20.48s27.307 6.827 34.133 20.48l204.8 310.613c54.613 85.333 98.987 180.907 98.987 296.96 0 109.227-37.547 208.213-98.987 279.893-54.294 70.836-138.94 116.057-234.148 116.057-0.482 0-0.965-0.001-1.447-0.003h0.075zM648.533 618.667c0-75.405-61.128-136.533-136.533-136.533s-136.533 61.128-136.533 136.533c0 75.405 61.128 136.533 136.533 136.533s136.533-61.128 136.533-136.533z" />
<glyph unicode="&#xe950;" glyph-name="Lock_Filled" d="M832 492.8v179.2c0 160-128 288-288 288s-288-128-288-288v-179.2c-38.4-57.6-64-128-64-204.8 0-192 160-352 352-352s352 160 352 352c0 76.8-25.6 147.2-64 204.8zM544 883.2c115.2 0 211.2-96 211.2-217.6v-102.4c-57.6 51.2-128 76.8-211.2 76.8s-153.6-25.6-211.2-70.4v102.4c0 115.2 96 211.2 211.2 211.2z" />
<glyph unicode="&#xe951;" glyph-name="logout_30" d="M402.773 325.12l-197.973 157.013v-102.4h-136.533v-102.4h136.533v-102.4zM307.2 925.867v-378.88l68.267-58.027v368.64h549.547l-273.067-143.36v-518.827l273.067-157.013h-549.547v129.707l-68.267-68.267v-129.707h682.667v955.733z" />
<glyph unicode="&#xe952;" d="M512 780.8c-184.32 0-332.8-148.48-332.8-332.8s148.48-332.8 332.8-332.8 332.8 148.48 332.8 332.8-148.48 332.8-332.8 332.8zM512 243.2c-112.64 0-204.8 92.16-204.8 204.8s92.16 204.8 204.8 204.8 204.8-92.16 204.8-204.8-92.16-204.8-204.8-204.8z" />
<glyph unicode="&#xe953;" d="M921.6 391.68l102.4 112.64-125.44 84.48 38.4 148.48-151.040 15.36-33.28 148.48-140.8-56.32-99.84 115.2-99.84-115.2-140.8 56.32-33.28-148.48-151.040-17.92 38.4-148.48-125.44-84.48 102.4-112.64-71.68-133.12 143.36-51.2-2.56-153.6 151.040 20.48 69.12-135.68 122.88 89.6 122.88-89.6 69.12 135.68 151.040-20.48-2.56 153.6 143.36 51.2-76.8 135.68zM816.64 92.16l-135.68 17.92-61.44-122.88-110.080 79.36-110.080-79.36-61.44 122.88-135.68-17.92 2.56 138.24-128 46.080 64 120.32-92.16 102.4 112.64 76.8-33.28 130.56 135.68 15.36 30.72 133.12 128-51.2 87.040 104.96 89.6-104.96 128 51.2 30.72-133.12 135.68-15.36-35.84-133.12 112.64-76.8-92.16-102.4 66.56-120.32-128-46.080v-135.68z" />
<glyph unicode="&#xe954;" d="M880.64 396.8l92.16 102.4-112.64 76.8 35.84 133.12-135.68 15.36-30.72 133.12-128-51.2-89.6 102.4-89.6-104.96-128 51.2-30.72-133.12-133.12-15.36 35.84-133.12-115.2-74.24 89.6-102.4-64-120.32 128-46.080v-138.24l135.68 17.92 61.44-122.88 110.080 79.36 110.080-79.36 61.44 122.88 135.68-17.92-2.56 138.24 128 46.080-64 120.32zM512 115.2c-184.32 0-332.8 148.48-332.8 332.8s148.48 332.8 332.8 332.8 332.8-148.48 332.8-332.8-148.48-332.8-332.8-332.8z" />
<glyph unicode="&#xe955;" d="M716.8 448c0-113.108-91.692-204.8-204.8-204.8s-204.8 91.692-204.8 204.8c0 113.108 91.692 204.8 204.8 204.8s204.8-91.692 204.8-204.8z" />
<glyph unicode="&#xe956;" d="M512 780.8c-184.32 0-332.8-148.48-332.8-332.8s148.48-332.8 332.8-332.8 332.8 148.48 332.8 332.8-148.48 332.8-332.8 332.8zM512 243.2c-112.64 0-204.8 92.16-204.8 204.8s92.16 204.8 204.8 204.8 204.8-92.16 204.8-204.8-92.16-204.8-204.8-204.8z" />
<glyph unicode="&#xe957;" d="M921.6 391.68l102.4 112.64-125.44 84.48 38.4 148.48-151.040 15.36-33.28 148.48-140.8-56.32-99.84 115.2-99.84-115.2-140.8 56.32-33.28-148.48-151.040-17.92 38.4-148.48-125.44-84.48 102.4-112.64-71.68-133.12 143.36-51.2-2.56-153.6 151.040 20.48 69.12-135.68 122.88 89.6 122.88-89.6 69.12 135.68 151.040-20.48-2.56 153.6 143.36 51.2-76.8 135.68zM816.64 92.16l-135.68 17.92-61.44-122.88-110.080 79.36-110.080-79.36-61.44 122.88-135.68-17.92 2.56 138.24-128 46.080 64 120.32-92.16 102.4 112.64 76.8-33.28 130.56 135.68 15.36 30.72 133.12 128-51.2 87.040 104.96 89.6-104.96 128 51.2 30.72-133.12 135.68-15.36-35.84-133.12 112.64-76.8-92.16-102.4 66.56-120.32-128-46.080v-135.68z" />
<glyph unicode="&#xe958;" d="M880.64 396.8l92.16 102.4-112.64 76.8 35.84 133.12-135.68 15.36-30.72 133.12-128-51.2-89.6 102.4-89.6-104.96-128 51.2-30.72-133.12-133.12-15.36 35.84-133.12-115.2-74.24 89.6-102.4-64-120.32 128-46.080v-138.24l135.68 17.92 61.44-122.88 110.080 79.36 110.080-79.36 61.44 122.88 135.68-17.92-2.56 138.24 128 46.080-64 120.32zM512 115.2c-184.32 0-332.8 148.48-332.8 332.8s148.48 332.8 332.8 332.8 332.8-148.48 332.8-332.8-148.48-332.8-332.8-332.8z" />
<glyph unicode="&#xe959;" d="M716.8 448c0-113.108-91.692-204.8-204.8-204.8s-204.8 91.692-204.8 204.8c0 113.108 91.692 204.8 204.8 204.8s204.8-91.692 204.8-204.8z" />
<glyph unicode="&#xe95a;" d="M512 780.8c-184.32 0-332.8-148.48-332.8-332.8s148.48-332.8 332.8-332.8 332.8 148.48 332.8 332.8-148.48 332.8-332.8 332.8zM512 243.2c-112.64 0-204.8 92.16-204.8 204.8s92.16 204.8 204.8 204.8 204.8-92.16 204.8-204.8-92.16-204.8-204.8-204.8z" />
<glyph unicode="&#xe95b;" d="M921.6 391.68l102.4 112.64-125.44 84.48 38.4 148.48-151.040 15.36-33.28 148.48-140.8-56.32-99.84 115.2-99.84-115.2-140.8 56.32-33.28-148.48-151.040-17.92 38.4-148.48-125.44-84.48 102.4-112.64-71.68-133.12 143.36-51.2-2.56-153.6 151.040 20.48 69.12-135.68 122.88 89.6 122.88-89.6 69.12 135.68 151.040-20.48-2.56 153.6 143.36 51.2-76.8 135.68zM816.64 92.16l-135.68 17.92-61.44-122.88-110.080 79.36-110.080-79.36-61.44 122.88-135.68-17.92 2.56 138.24-128 46.080 64 120.32-92.16 102.4 112.64 76.8-33.28 130.56 135.68 15.36 30.72 133.12 128-51.2 87.040 104.96 89.6-104.96 128 51.2 30.72-133.12 135.68-15.36-35.84-133.12 112.64-76.8-92.16-102.4 66.56-120.32-128-46.080v-135.68z" />
<glyph unicode="&#xe95c;" d="M880.64 396.8l92.16 102.4-112.64 76.8 35.84 133.12-135.68 15.36-30.72 133.12-128-51.2-89.6 102.4-89.6-104.96-128 51.2-30.72-133.12-133.12-15.36 35.84-133.12-115.2-74.24 89.6-102.4-64-120.32 128-46.080v-138.24l135.68 17.92 61.44-122.88 110.080 79.36 110.080-79.36 61.44 122.88 135.68-17.92-2.56 138.24 128 46.080-64 120.32zM512 115.2c-184.32 0-332.8 148.48-332.8 332.8s148.48 332.8 332.8 332.8 332.8-148.48 332.8-332.8-148.48-332.8-332.8-332.8z" />
<glyph unicode="&#xe95d;" d="M716.8 448c0-113.108-91.692-204.8-204.8-204.8s-204.8 91.692-204.8 204.8c0 113.108 91.692 204.8 204.8 204.8s204.8-91.692 204.8-204.8z" />
<glyph unicode="&#xe95e;" glyph-name="menu_30" d="M952.32 721.067h-880.64v68.267l880.64-3.413zM952.32 417.28h-880.64v64.853h884.053zM952.32 106.667l-884.053 3.413 3.413 64.853h877.227z" />
<glyph unicode="&#xe95f;" glyph-name="Menu-20px" d="M614.4 89.6c0-56.554-45.846-102.4-102.4-102.4s-102.4 45.846-102.4 102.4c0 56.554 45.846 102.4 102.4 102.4s102.4-45.846 102.4-102.4zM614.4 806.4c0-56.554-45.846-102.4-102.4-102.4s-102.4 45.846-102.4 102.4c0 56.554 45.846 102.4 102.4 102.4s102.4-45.846 102.4-102.4zM614.4 448c0-56.554-45.846-102.4-102.4-102.4s-102.4 45.846-102.4 102.4c0 56.554 45.846 102.4 102.4 102.4s102.4-45.846 102.4-102.4z" />
<glyph unicode="&#xe960;" glyph-name="Menu-30px" d="M614.4 106.667c0-56.554-45.846-102.4-102.4-102.4s-102.4 45.846-102.4 102.4c0 56.554 45.846 102.4 102.4 102.4s102.4-45.846 102.4-102.4zM614.4 448c0-56.554-45.846-102.4-102.4-102.4s-102.4 45.846-102.4 102.4c0 56.554 45.846 102.4 102.4 102.4s102.4-45.846 102.4-102.4zM614.4 789.333c0-56.554-45.846-102.4-102.4-102.4s-102.4 45.846-102.4 102.4c0 56.554 45.846 102.4 102.4 102.4s102.4-45.846 102.4-102.4z" />
<glyph unicode="&#xe961;" glyph-name="Mobile-30px" d="M682.667 925.867h-341.333c-58.027 0-102.4-44.373-102.4-102.4v-750.933c0-58.027 44.373-102.4 102.4-102.4h341.333c58.027 0 102.4 44.373 102.4 102.4v750.933c0 58.027-44.373 102.4-102.4 102.4zM423.253 857.6h177.493c6.827 0 13.653-6.827 13.653-17.067s-6.827-17.067-13.653-17.067h-177.493c-6.827 0-13.653 6.827-13.653 17.067s6.827 17.067 13.653 17.067zM512-5.973c-34.133 0-61.44 27.307-61.44 61.44s27.307 61.44 61.44 61.44 61.44-27.307 61.44-61.44-27.307-61.44-61.44-61.44zM733.867 140.8h-443.733v614.4h443.733v-614.4z" />
<glyph unicode="&#xe962;" glyph-name="more_header" d="M512 960c-281.6 0-512-230.4-512-512s230.4-512 512-512 512 230.4 512 512-230.4 512-512 512zM224 352c-57.6 0-96 38.4-96 96 0 51.2 44.8 96 96 96s96-44.8 96-96c0-57.6-44.8-96-96-96zM518.4 345.6c-51.2 0-96 44.8-96 96s44.8 96 96 96 96-44.8 96-96c0-51.2-44.8-96-96-96zM806.4 339.2c-51.2 0-96 44.8-96 96s44.8 96 96 96 96-44.8 96-96-38.4-96-96-96z" />
<glyph unicode="&#xe963;" glyph-name="morning" d="M570.027 611.84l-64.853 177.493-64.853-177.493c0 0 27.307 10.24 64.853 10.24 44.373-3.413 64.853-10.24 64.853-10.24zM286.72 437.76c-37.547-51.2-54.613-105.813-54.613-160.427 0-23.893 3.413-51.2 10.24-71.68h525.653c3.413 23.893 10.24 44.373 10.24 71.68 0 81.92-37.547 170.667-109.227 218.453-51.2 37.547-105.813 54.613-160.427 54.613-85.333-3.413-167.253-37.547-221.867-112.64zM3.413 144.213h1020.587v-64.853h-1020.587v64.853zM1024 267.093l-177.493 64.853c0 0 10.24-27.307 10.24-64.853 0-40.96-6.827-61.44-6.827-61.44l174.080 61.44zM259.413 519.68c30.72 27.307 51.2 37.547 51.2 37.547l-170.667 78.507 81.92-170.667c-3.413 0 10.24 23.893 37.547 54.613zM812.373 465.067l78.507 170.667-170.667-81.92c0 0 27.307-10.24 54.613-40.96 27.307-27.307 37.547-47.787 37.547-47.787zM170.667 263.68c0 40.96 6.827 61.44 6.827 61.44l-177.493-61.44 177.493-64.853c0 0-10.24 27.307-6.827 64.853z" />
<glyph unicode="&#xe964;" glyph-name="myTasks_portlet" d="M607.277 619.854l-8.014 19.59h-154.045l-8.014-19.59h-127.332v-505.767h424.737v505.767h-127.332zM702.553 147.033h-363.297v440.765l83.701 0.89-16.028-45.412h231.513l-18.699 45.412h85.482l-2.671-441.656zM461.245 446.219h202.129v-24.932h-202.129v24.932zM463.026 341.148h202.129v-26.713h-202.129v26.713zM463.026 234.296h202.129v-26.713h-202.129v26.713zM437.203 431.972c0-15.737-12.757-28.494-28.494-28.494s-28.494 12.757-28.494 28.494c0 15.737 12.757 28.494 28.494 28.494s28.494-12.757 28.494-28.494zM437.203 328.682c0-15.737-12.757-28.494-28.494-28.494s-28.494 12.757-28.494 28.494c0 15.737 12.757 28.494 28.494 28.494s28.494-12.757 28.494-28.494zM437.203 222.72c0-15.737-12.757-28.494-28.494-28.494s-28.494 12.757-28.494 28.494c0 15.737 12.757 28.494 28.494 28.494s28.494-12.757 28.494-28.494z" />
<glyph unicode="&#xe965;" glyph-name="notStarted" d="M224 928h576v-64h-576v64zM224 704h576v-64h-576v64zM224 480h576v-64h-576v64zM224 256h576v-64h-576v64zM224 32h576v-64h-576v64z" />
<glyph unicode="&#xe966;" glyph-name="order_30" d="M409.6 618.667h341.333v-68.267h-341.333v68.267zM409.6 448h341.333v-68.267h-341.333v68.267zM409.6 277.333h341.333v-68.267h-341.333v68.267zM102.4 960v-1024h819.2v1024h-819.2zM853.333 4.267h-682.667v785.067h682.667v-785.067zM273.067 618.667h68.267v-68.267h-68.267v68.267zM273.067 448h68.267v-68.267h-68.267v68.267zM273.067 277.333h68.267v-68.267h-68.267v68.267z" />
<glyph unicode="&#xe967;" glyph-name="override_required_30" d="M785.067 482.133v116.053c0 150.187-122.88 273.067-273.067 273.067s-273.067-122.88-273.067-273.067v-116.053h-102.4v-477.867h750.933v477.867h-102.4zM307.2 598.187c0 112.64 92.16 204.8 204.8 204.8s204.8-92.16 204.8-204.8v-116.053h-409.6v116.053z" />
<glyph unicode="&#xe968;" glyph-name="pack_portlet" d="M620.633 621.635l-94.386 21.37-83.701-18.699 96.167-24.932zM528.028 585.127l-89.934 23.151v-106.852l89.934-23.151zM547.617 478.275l80.139 22.261v105.962l-80.139-22.261zM848.584 363.409l-70.344 128.223c-1.781 2.671-132.675 36.508-132.675 36.508v-17.809l90.824-22.261-209.252-56.097-216.376 58.769 105.962 25.823v18.699l-136.237-33.837c-1.781 0-2.671-0.89-3.562-1.781-2.671 0-5.343-1.781-6.233-4.452l-73.016-123.77c-1.781-3.562-1.781-6.233-0.89-8.904s2.671-4.452 5.343-5.343l66.783-22.261v-149.593l251.993-93.496v302.748l8.904 17.809 8.904-17.809v-302.748l234.184 103.29v133.565l70.344 22.261c2.671 0.89 4.452 2.671 5.343 5.343s0.89 4.452 0 7.123zM445.217 296.626l-227.061 73.906 64.111 108.633 229.732-63.221-66.783-119.318zM618.852 296.626l-69.454 121.099 216.376 59.659 62.33-113.085-209.252-67.673z" />
<glyph unicode="&#xe969;" glyph-name="package_30" d="M887.467 813.227h-750.933v-754.347h750.933v754.347zM583.68 465.067v266.24h184.32v-266.24h-184.32z" />
<glyph unicode="&#xe96a;" glyph-name="package_empty_80x65" d="M976.64 422.4l-101.12 184.32c-2.56 3.84-328.96 87.040-357.12 94.72v0h-1.28c-1.28 0-1.28 0-1.28 0v0l-355.84-80.64c-2.56 0-3.84-1.28-5.12-2.56-3.84 0-7.68-2.56-8.96-6.4l-104.96-177.92c-2.56-3.84-2.56-7.68-1.28-11.52s3.84-6.4 7.68-7.68l96-32v-215.040l362.24-135.68v435.2l12.8 25.6 12.8-25.6v-435.2l336.64 148.48v192l101.12 32c3.84 1.28 6.4 3.84 7.68 7.68s1.28 7.68 0 10.24zM396.8 326.4l-326.4 106.24 92.16 156.16 330.24-90.88-96-171.52zM514.56 520.96l-311.040 84.48 313.6 71.68 298.24-74.24-300.8-81.92zM646.4 326.4l-99.84 174.080 312.32 85.76 88.32-162.56-300.8-97.28z" />
<glyph unicode="&#xe96b;" glyph-name="package_empty" d="M839.68 363.409l-70.344 128.223c-1.781 2.671-228.842 60.55-248.431 65.892v0h-0.89c-0.89 0-0.89 0-0.89 0v0l-247.541-56.097c-1.781 0-2.671-0.89-3.562-1.781-2.671 0-5.343-1.781-6.233-4.452l-73.016-123.77c-1.781-2.671-1.781-5.343-0.89-8.014s2.671-4.452 5.343-5.343l66.783-22.261v-149.593l251.993-94.386v302.748l8.904 17.809 8.904-17.809v-302.748l234.184 103.29v133.565l70.344 22.261c2.671 0.89 4.452 2.671 5.343 5.343s0.89 5.343 0 7.123zM436.313 296.626l-227.061 73.906 64.111 108.633 229.732-63.221-66.783-119.318zM518.233 431.972l-216.376 58.769 218.157 49.864 207.471-51.645-209.252-56.988zM609.948 296.626l-69.454 121.099 217.266 59.659 61.44-113.085-209.252-67.673z" />
<glyph unicode="&#xe96c;" glyph-name="package_packed" d="M203.019 199.569l295.624-106.852v385.558l-295.624 76.577zM818.31 546.838l-292.063-66.783v-388.23l295.624 106.852zM510.219 643.896l-287.61-69.454 287.61-68.563 310.762 67.673z" />
<glyph unicode="&#xe96d;" glyph-name="package" d="M508.587 888.32c-6.827 3.413-13.653 3.413-20.48 0l-488.107-119.467 515.413-150.187 477.867 150.187-484.693 119.467zM0 161.28c0 0 334.507-143.36 477.867-191.147v607.573l-477.867 143.36v-559.787zM546.133-29.867l447.147 177.493-3.413 573.44-443.733-143.36v-607.573zM785.067 605.013v-133.12l-170.667-58.027v136.533l170.667 54.613z" />
<glyph unicode="&#xe96e;" glyph-name="Pick_portlet" d="M401.586 140.8c0-27.048-21.926-48.974-48.974-48.974s-48.974 21.926-48.974 48.974c0 27.048 21.926 48.974 48.974 48.974s48.974-21.926 48.974-48.974zM778.24 140.8c0-27.048-21.926-48.974-48.974-48.974s-48.974 21.926-48.974 48.974c0 27.048 21.926 48.974 48.974 48.974s48.974-21.926 48.974-48.974zM479.054 300.188h-103.29c-4.452 0-7.123 3.562-7.123 7.123v98.838c0 4.452 3.562 7.123 7.123 7.123h103.29c4.452 0 7.123-3.562 7.123-7.123v-98.838c0-3.562-3.562-7.123-7.123-7.123zM617.071 299.297h-103.29c-4.452 0-7.123 3.562-7.123 7.123v98.838c0 4.452 3.562 7.123 7.123 7.123h103.29c4.452 0 7.123-3.562 7.123-7.123v-98.838c0-4.452-2.671-7.123-7.123-7.123zM479.054 435.534h-102.4c-4.452 0-7.123 3.562-7.123 7.123v98.838c0 4.452 3.562 7.123 7.123 7.123h103.29c4.452 0 7.123-3.562 7.123-7.123v-98.838c0-4.452-3.562-7.123-8.014-7.123zM617.962 433.753h-103.29c-4.452 0-7.123 3.562-7.123 7.123v99.729c0 4.452 3.562 7.123 7.123 7.123h103.29c4.452 0 7.123-3.562 7.123-7.123v-98.838c0-4.452-2.671-8.014-7.123-8.014zM757.76 299.297h-103.29c-4.452 0-7.123 3.562-7.123 7.123v99.729c0 4.452 3.562 7.123 7.123 7.123h103.29c4.452 0 7.123-3.562 7.123-7.123v-98.838c0-4.452-3.562-8.014-7.123-8.014zM756.87 433.753h-102.4c-4.452 0-7.123 3.562-7.123 7.123v98.838c0 4.452 3.562 7.123 7.123 7.123h102.4c4.452 0 7.123-3.562 7.123-7.123v-98.838c0-3.562-2.671-7.123-7.123-7.123zM788.925 257.447c-1.781 0-458.574-0.89-458.574-0.89l-51.645 238.637c0 0-0.89 3.562-2.671 6.233s-5.343 4.452-5.343 4.452l-121.99 75.687c-4.452 4.452-10.685 6.233-16.918 6.233-13.357 0-24.932-10.685-24.932-24.932 0-9.795 6.233-18.699 14.247-22.261v0l115.757-68.563 48.083-227.951c0 0 1.781-15.137 15.137-25.823 14.247-11.576 27.603-10.685 27.603-10.685l455.903-0.89c1.781 0 3.562-0.89 5.343-0.89 14.247 0 25.823 11.576 25.823 25.823s-11.576 25.823-25.823 25.823z" />
<glyph unicode="&#xe96f;" glyph-name="pickUp_85x85" d="M879.435 622.682h-202.391c-18.071 168.659-85.534 289.129-171.068 289.129-86.739 0-154.202-120.471-172.273-289.129h-201.186v-638.494h746.918v638.494zM505.976 855.191c45.779 0 96.376-87.944 112.038-232.508h-224.075c15.661 144.565 65.054 232.508 112.038 232.508zM360.207 443.181c-26.504 0-48.188 21.685-48.188 48.188s21.685 48.188 48.188 48.188 48.188-21.685 48.188-48.188c0-26.504-21.685-48.188-48.188-48.188zM642.108 441.976c-26.504 0-48.188 21.685-48.188 48.188s21.685 48.188 48.188 48.188c26.504 0 48.188-21.685 48.188-48.188s-21.685-48.188-48.188-48.188z" />
<glyph unicode="&#xe970;" glyph-name="Pickup_portlet_02" d="M765.774 269.023c0-10.819-8.771-19.59-19.59-19.59s-19.59 8.771-19.59 19.59c0 10.819 8.771 19.59 19.59 19.59s19.59-8.771 19.59-19.59zM656.25 269.023c0-10.819-8.771-19.59-19.59-19.59s-19.59 8.771-19.59 19.59c0 10.819 8.771 19.59 19.59 19.59s19.59-8.771 19.59-19.59zM725.704 407.93c3.562 5.343 6.233 9.795 6.233 16.028-0.89 31.165-28.494 31.165-28.494 31.165h-308.981c36.508 0 64.111 41.85 64.111 81.030 0 47.193-38.289 84.591-85.482 84.591s-85.482-37.398-85.482-84.591c0-40.070 26.713-81.92 64.111-81.92h-50.755c0 0-99.729 3.562-99.729-91.715 0 0 0-4.452 0-5.343v-237.746c0 0 0 0 0 0 0-16.918 16.918-29.384 33.837-29.384 17.809 0 33.837 12.466 33.837 29.384 0 0 0 0 0 0v213.704c0 3.562 2.671 5.343 6.233 5.343s6.233-0.89 6.233-4.452l-0.89-219.047h215.485l-2.671 283.158h147.812c-7.123-11.576-12.466-45.412-15.137-56.988h-96.167v-260.897h316.104v260.007l-96.167 0.89c-4.452 23.151-12.466 48.974-24.042 66.783zM698.991 389.231c0 0-0.89 0-0.89-0.89l0.89 0.89zM696.32 398.136c4.452 0 8.904 0 13.357 1.781 8.014-13.357 14.247-35.617 17.809-58.769h-80.139c3.562 22.261 9.795 45.412 16.918 56.988h32.056zM823.652 103.402h-272.473v215.485h271.583l0.89-215.485z" />
<glyph unicode="&#xe971;" glyph-name="Pickup_portlet" d="M721.252 484.508c0-8.36-6.977-15.137-15.583-15.137s-15.583 6.777-15.583 15.137c0 8.36 6.977 15.137 15.583 15.137s15.583-6.777 15.583-15.137zM633.544 484.508c0-8.36-6.977-15.137-15.583-15.137s-15.583 6.777-15.583 15.137c0 8.36 6.977 15.137 15.583 15.137s15.583-6.777 15.583-15.137zM667.826 578.894l-0.89-0.445c0.445 0.445 1.336 0.445 0.89 0.445zM689.642 593.586c2.671 4.007 5.343 7.569 4.897 12.466-0.89 24.487-23.151 24.042-23.151 24.042h-231.068c25.823 9.795 44.077 34.727 44.077 64.111 0 37.843-30.72 68.563-68.563 68.563s-68.563-30.72-68.563-68.563c0-29.384 18.254-54.317 44.077-64.111h-43.186c0 0-69.899 2.671-69.899-71.68 0 0 0-3.562 0-4.007v-185.656c0 0 0 0 0 0 0-13.357 8.014-23.151 21.816-23.151s22.706 9.795 22.706 23.151c0 0 0 0 0 0v166.511c0 2.671 2.226 4.007 4.897 4.007s4.897-0.89 4.897-3.562l-0.445-170.963 171.854-0.445v221.273l119.318 0.445c-5.343-8.904-11.13-35.617-13.357-44.522h-80.139v-204.8h253.774v204.8h-75.687c-3.117 17.809-9.35 38.289-18.254 52.090zM639.332 585.572h26.713c3.562 0 7.123 0 10.24 1.336 6.233-10.685 11.576-28.049 14.247-45.412h-64.557c3.117 17.809 8.014 35.172 13.357 44.077zM765.774 354.504h-218.157v169.183h218.157v-169.183zM515.117 952.877c-278.706 0-505.322-227.061-505.322-505.767s227.061-505.767 505.767-505.767 505.767 227.061 505.767 505.767-227.061 505.767-506.212 505.767zM515.117-40.849c-268.911 0-487.958 219.047-487.958 487.958s219.047 487.958 487.958 487.958 487.958-219.047 487.958-487.958-218.602-487.958-487.958-487.958z" />
<glyph unicode="&#xe972;" glyph-name="Pie-Chart-30px" d="M945.493 372.907c-20.48-191.147-170.667-341.333-358.4-358.4v358.4h358.4zM989.867 413.867h-443.733v-443.733c245.76 0 443.733 197.973 443.733 443.733zM477.867 482.133h443.733c0 245.76-197.973 443.733-443.733 443.733s-443.733-197.973-443.733-443.733 197.973-443.733 443.733-443.733v443.733z" />
<glyph unicode="&#xe973;" glyph-name="plus_white" d="M438.857 960v-438.857h-438.857v-146.286h438.857v-438.857h146.286v438.857h438.857v146.286h-438.857v438.857z" />
<glyph unicode="&#xe974;" glyph-name="Print-30px" d="M853.333 652.8v238.933h-682.667v-238.933h-136.533v-307.2h136.533v-204.8l170.667-170.667h512v375.467h136.533v307.2h-136.533zM238.933 823.467h546.133v-170.667h-546.133v170.667zM819.2 4.267h-443.733v170.667h-170.667v307.2h614.4v-477.867z" />
<glyph unicode="&#xe975;" glyph-name="product_30" d="M1024 775.68l-498.347 126.293c-6.827 3.413-13.653 3.413-23.893 0l-501.76-119.467v-631.467c0 0 549.547-197.973 559.787-197.973l464.213 184.32v638.293zM529.067 864.427l157.013-40.96-395.947-119.467-211.627 61.44 426.667 98.987c6.827 0 17.067 0 23.893 0zM512 21.333l-471.040 163.84v546.133l471.040-143.36v-566.613zM556.373 625.493l-208.213 61.44 399.36 122.88 221.867-54.613-413.013-129.707z" />
<glyph unicode="&#xe976;" glyph-name="product" d="M675.84 232.96c23.893-3.413 44.373-6.827 64.853-13.653l17.067 68.267c-20.48 6.827-44.373 10.24-68.267 13.653l-13.653-68.267zM546.133 243.2c23.893 0 44.373-3.413 64.853-3.413l6.827 68.267c-23.893 3.413-44.373 3.413-68.267 3.413l-3.413-68.267zM406.187 308.053l6.827-68.267c20.48 3.413 44.373 3.413 64.853 3.413l-3.413 68.267c-20.48 3.413-44.373 0-68.267-3.413zM269.653 287.573l17.067-68.267c20.48 3.413 40.96 10.24 64.853 13.653l-10.24 68.267c-27.307-3.413-51.2-10.24-71.68-13.653zM955.733 174.933l-413.013 750.933c-13.653 20.48-47.787 20.48-61.44 0l-413.013-757.76c-6.827-13.653-10.24-23.893-10.24-37.547v0c0 0 0 0 0 0s0-3.413 0-3.413v0c6.827-122.88 232.107-184.32 453.973-184.32s450.56 64.853 453.973 184.32c0 0 0 0 0 0 3.413 0-3.413 34.133-10.24 47.787zM512 11.093c-232.107 0-378.88 68.267-385.707 116.053 0 3.413 3.413 13.653 3.413 13.653l27.307 51.2 10.24-17.067c13.653 10.24 34.133 17.067 54.613 27.307l-23.893 64.853c0 0 0 0-3.413 0l317.44 573.44 314.027-573.44c0 0 0 0 0 0l-23.893-64.853c20.48-6.827 40.96-17.067 54.613-27.307l10.24 17.067 27.307-51.2c3.413-3.413 3.413-10.24 3.413-13.653v0c-6.827-51.2-153.6-116.053-385.707-116.053z" />
<glyph unicode="&#xe977;" glyph-name="purchase_order" d="M179.2 806.4h384v-153.6h153.6v-128h51.2v128l-186.88 204.8h-453.12v-768l332.8 2.56v48.64h-281.6zM896 140.8c-2.56 12.8-12.8 23.040-28.16 25.6v0h-99.84c-15.36 0-25.6 20.48-25.6 46.080s51.2 107.52 51.2 158.72c0 2.56 0 10.24 0 12.8 0 48.64-40.96 89.6-89.6 89.6s-89.6-40.96-89.6-89.6c0-2.56 0-10.24 0-12.8 0-51.2 53.76-135.68 53.76-158.72 0-25.6-12.8-46.080-25.6-46.080 0 0 0 0 0 0v0h-94.72c0 0 0 0-2.56 0-15.36 0-25.6-10.24-28.16-25.6v0-51.2h384l-5.12 51.2zM537.6 64h332.8v-25.6h-332.8v25.6zM256 627.2h76.8v-76.8h-76.8v76.8zM256 473.6h76.8v-76.8h-76.8v76.8zM256 320h76.8v-76.8h-76.8v76.8zM384 601.6h256v-51.2h-256v51.2zM384 448h179.2v-51.2h-179.2v51.2zM384 294.4h179.2v-51.2h-179.2v51.2z" />
<glyph unicode="&#xe978;" glyph-name="quickCheckout" d="M513.336 952.877c-279.151 0-505.767-227.061-505.767-505.767s227.061-505.767 505.767-505.767 505.767 227.061 505.767 505.767-227.061 505.767-505.767 505.767zM513.336-40.849c-268.911 0-487.958 219.047-487.958 487.958s219.047 487.958 487.958 487.958 487.958-219.047 487.958-487.958-219.047-487.958-487.958-487.958zM799.165 385.67h-311.652c-11.13 0-20.035-8.904-20.035-20.035v-200.348c0-11.13 8.904-20.035 20.035-20.035h311.652c11.13 0 20.035 8.904 20.035 20.035v200.348c0 11.13-8.904 20.035-20.035 20.035zM805.843 165.287c0-3.562-3.117-6.678-6.678-6.678h-311.652c-3.562 0-6.678 3.117-6.678 6.678v20.035h325.009v-20.035zM805.843 252.104h-325.009v113.53c0 3.562 3.117 6.678 6.678 6.678h311.652c3.562 0 6.678-3.117 6.678-6.678v-113.53zM603.715 484.508c0 0 4.897-6.233 5.788 1.336s1.781 19.144 1.781 19.144v1.336c0.445 0 0.89-0.445 1.336-0.445 36.508-4.452 66.337-28.939 78.803-61.44l39.179 36.063c-22.706 40.515-63.666 70.344-112.64 76.577-0.89 0-1.781 0-2.671 0v2.226c0 0 1.336 14.692 2.226 20.48 0.445 6.233-5.343 1.336-5.343 1.336l-48.529-40.070c0 0-3.562-2.671-0.89-6.233 3.562-5.343 40.96-50.31 40.96-50.31zM240.417 670.609h280.487v-262.678h22.261v290.727c0 23.151-20.48 43.186-43.631 43.186h-239.972c-23.151 0-41.405-20.48-41.405-43.186v-487.513c0-22.706 18.254-43.186 41.405-43.186h185.656v89.043h-204.8v413.607zM325.009 719.583h111.304v-13.357h-111.304v13.357zM382.442 225.391c8.459 0 14.692-6.678 14.692-15.137 0-8.014-6.678-14.692-14.692-14.692-8.459 0-15.137 6.678-15.137 14.692 0.445 8.459 7.123 15.137 15.137 15.137z" />
<glyph unicode="&#xe979;" glyph-name="receipt_30" d="M808.96 922.453l-92.16-92.16-102.4 95.573-102.4-95.573-95.573 92.16-139.947-150.187c0 0 3.413-317.44-3.413-529.067h-204.8c0-3.413 0-51.2 0-51.2 0-191.147 136.533-221.867 136.533-221.867h522.24c0 0 228.693-30.72 228.693 276.48 0 153.6-3.413 525.653-3.413 525.653l-143.36 150.187zM887.467 209.067c0-211.627-314.027-249.173-310.613-17.067v51.2h-235.52v512l78.507 81.92 92.16-81.92 105.813 88.747 98.987-88.747 92.16 78.507 78.507-78.507c0 0 0-409.6 0-546.133zM409.6 652.8h409.6v-68.267h-409.6v68.267zM409.6 516.267h409.6v-68.267h-409.6v68.267zM409.6 379.733h409.6v-68.267h-409.6v68.267z" />
<glyph unicode="&#xe97a;" glyph-name="receiving" d="M168.659 351.624h120.471v-120.471h-120.471v120.471zM24.094 351.624h120.471v-120.471h-120.471v120.471zM993.28 459.445c-0.602 0-0.602 0.602-1.205 0.602h-1.205l-51.2 129.506c-1.205 9.638-9.035 15.059-18.673 15.059h-131.915v48.188c0 0.602 0 1.205-0.602 2.409-1.205 4.216-4.819 7.831-9.035 9.035-0.602 0.602-1.807 0.602-2.409 0.602h-437.308c0 0 0 0 0 0s0 0 0 0c-8.433 0-14.456-6.024-14.456-13.854 0-0.602 0-1.205 0-2.409 0 0 0-0.602 0-0.602v-341.534c0 0 0-0.602 0-0.602s0 0 0 0c0-7.831 6.024-13.854 13.854-13.854 0.602 0 0.602 0 1.205 0 0 0 0 0 0 0h41.562c2.409 36.141 33.732 66.259 71.078 66.259 37.948 0 68.668-30.118 71.078-66.259h18.071c2.409 42.165 33.732 68.668 72.885 68.668 38.551 0 70.475-26.504 72.885-68.668h119.868c2.409 36.141 33.732 66.259 71.078 66.259 37.948 0 68.668-30.118 71.078-66.259h39.755c0 0 0 0 0.602 0s0.602 0 1.205 0c7.831 0 13.854 6.024 13.854 13.854 0 0.602 0 0.602 0 1.205 0 0 0 0.602 0 0.602v135.529c0 0.602 0 1.807 0 2.409 0.602 7.831-4.819 13.854-12.047 13.854zM764.988 460.047h-240.941v78.306h-126.494v-78.306h-48.188v180.706h415.624v-180.706zM789.082 460.047v120.471h127.096l48.791-120.471h-175.887zM451.765 342.588c-31.322 0-57.224-25.901-57.224-57.224s25.901-57.224 57.224-57.224 57.224 25.901 57.224 57.224-25.901 57.224-57.224 57.224zM451.765 252.235c-18.071 0-33.129 15.059-33.129 33.129s15.059 33.129 33.129 33.129 33.129-15.059 33.129-33.129-15.059-33.129-33.129-33.129zM472.245 285.365c0-10.978-8.9-19.878-19.878-19.878s-19.878 8.9-19.878 19.878c0 10.978 8.9 19.878 19.878 19.878s19.878-8.9 19.878-19.878zM614.4 342.588c-31.322 0-57.224-25.901-57.224-57.224s25.901-57.224 57.224-57.224 57.224 25.901 57.224 57.224-25.901 57.224-57.224 57.224zM614.4 252.235c-18.071 0-33.129 15.059-33.129 33.129s15.059 33.129 33.129 33.129 33.129-15.059 33.129-33.129-15.059-33.129-33.129-33.129zM634.88 285.365c0-10.978-8.9-19.878-19.878-19.878s-19.878 8.9-19.878 19.878c0 10.978 8.9 19.878 19.878 19.878s19.878-8.9 19.878-19.878zM879.435 342.588c-31.322 0-57.224-25.901-57.224-57.224s25.901-57.224 57.224-57.224 57.224 25.901 57.224 57.224-25.901 57.224-57.224 57.224zM879.435 252.235c-18.071 0-33.129 15.059-33.129 33.129s15.059 33.129 33.129 33.129 33.129-15.059 33.129-33.129-15.059-33.129-33.129-33.129zM899.915 285.365c0-10.978-8.9-19.878-19.878-19.878s-19.878 8.9-19.878 19.878c0 10.978 8.9 19.878 19.878 19.878s19.878-8.9 19.878-19.878z" />
<glyph unicode="&#xe97b;" glyph-name="resume_30" d="M512 925.867c262.827 0 477.867-215.040 477.867-477.867s-211.627-477.867-477.867-477.867c-262.827 0-477.867 215.040-477.867 477.867s215.040 477.867 477.867 477.867zM409.6 680.107v-467.627l337.92 218.453-337.92 249.173z" />
<glyph unicode="&#xe97c;" glyph-name="return_30" d="M430.080 294.4c58.027 0 102.4 47.787 102.4 105.813s-44.373 105.813-102.4 105.813c-40.96 0-78.507-27.307-92.16-64.853h-174.080v88.747l-160.427-133.12 160.427-139.947v98.987l177.493-3.413c17.067-30.72 51.2-58.027 88.747-58.027zM1024 700.587l-378.88 102.4-406.187-116.053v-204.8h40.96v167.253l337.92-102.4-3.413-416.427-331.093 116.053v71.68h-40.96v-98.987l406.187-146.773 375.467 143.36v484.693zM334.507 680.107l310.613 85.333 112.64-30.72-300.373-88.747-122.88 34.133zM651.947 591.36l-139.947 37.547 296.96 95.573 146.773-40.96-303.787-92.16z" />
<glyph unicode="&#xe97d;" glyph-name="return_order" d="M709.12 832h-453.12v-332.8h51.2v281.6h384v-153.6h153.6v-512h-537.6v51.2h-51.2v-102.4l588.8 2.56v-2.56h51.2v563.2zM256 320h158.72c10.24-30.72 38.4-51.2 71.68-51.2 43.52 0 76.8 33.28 76.8 76.8s-33.28 76.8-76.8 76.8c-33.28 0-61.44-20.48-71.68-51.2h-158.72v76.8l-128-102.4 128-102.4v76.8z" />
<glyph unicode="&#xe97e;" glyph-name="return_payment_30" d="M989.867 823.467h-955.733c-20.48 0-34.133-17.067-34.133-34.133v-682.667c0-17.067 13.653-34.133 34.133-34.133h955.733c20.48 0 34.133 17.067 34.133 34.133v682.667c0 17.067-13.653 34.133-34.133 34.133zM955.733 140.8h-887.467v375.467h887.467v-375.467zM955.733 652.8h-887.467v102.4h887.467v-102.4zM409.6 277.333h68.267v-68.267h-68.267v68.267zM546.133 277.333h68.267v-68.267h-68.267v68.267zM682.667 277.333h68.267v-68.267h-68.267v68.267zM819.2 277.333h68.267v-68.267h-68.267v68.267z" />
<glyph unicode="&#xe97f;" glyph-name="returns" d="M515.562 950.65c-279.151 0-505.767-227.061-505.767-505.767s227.061-505.767 505.767-505.767 505.767 227.061 505.767 505.767-227.061 505.767-505.767 505.767zM515.562-43.075c-268.911 0-487.958 219.047-487.958 487.958s218.602 487.958 487.958 487.958 487.958-219.047 487.958-487.958-219.047-487.958-487.958-487.958zM437.203 375.875c36.063 0 65.002 29.384 65.002 65.002 0 36.063-29.384 65.002-65.002 65.002-27.158 0-49.419-17.363-59.214-40.96l-111.304 0.445v57.433l-101.51-85.037 101.51-84.591 0.445 59.214h111.304c10.685-20.925 33.837-36.508 58.769-36.508zM812.522 630.094l-235.52 63.666c-1.336 0.445-3.117 0.445-4.452 0l-236.41-63.666c-4.897-1.336-7.569-6.233-6.233-10.685 0-0.89-0.445-1.336-0.445-2.226v-124.661h17.809v113.085l222.609-61.885v-292.508l-222.609 77.023v57.433h-17.809v-64.111c0-4.007 2.226-7.123 5.788-8.459l240.417-82.81c0 0 0 0 0 0 0.89-0.445 1.781-0.445 2.671-0.445s1.781 0 2.671 0.445c0 0 0 0 0.445 0 0 0 0 0 0 0l231.513 82.81c3.562 1.336 5.788 4.452 5.788 8.459v298.296c0 0.445 0 0.445 0 0.89 0.89 4.007-1.781 8.459-6.233 9.35zM364.188 619.409l210.588 56.543 76.132-20.48-198.567-60.55-88.153 24.487zM578.783 559.75l-94.386 26.268 190.553 58.323c1.781 0.445 3.562 1.781 4.897 3.562l101.51-27.603-202.574-60.55z" />
<glyph unicode="&#xe980;" glyph-name="salesOrder" d="M179.2 778.24h384v-153.6h204.8l-184.32 204.8h-455.68v-768l640 2.56v48.64h-588.8zM616.96 202.24c0-22.622-18.338-40.96-40.96-40.96s-40.96 18.338-40.96 40.96c0 22.622 18.338 40.96 40.96 40.96s40.96-18.338 40.96-40.96zM788.48 202.24c0-22.622-18.338-40.96-40.96-40.96s-40.96 18.338-40.96 40.96c0 22.622 18.338 40.96 40.96 40.96s40.96-18.338 40.96-40.96zM862.72 547.84c-61.44 0-320 0-320 0l-30.72 104.96h-92.16c0 0-5.12 23.040-38.4 23.040-23.040 0-40.96-17.92-40.96-40.96s17.92-40.96 40.96-40.96c15.36 0 28.16 7.68 35.84 20.48h51.2l61.44-243.2c0 0 230.4 0 256 0s35.84 23.040 35.84 23.040l58.88 110.080c5.12 0 25.6 43.52-17.92 43.52zM844.8 345.6h-307.2v-51.2h307.2c10.24 0 23.040 0 25.6 25.6 2.56 20.48-12.8 25.6-25.6 25.6z" />
<glyph unicode="&#xe981;" glyph-name="Save" d="M0 960v-1024h1024v1024h-1024zM256 896h512v-320h-512v320zM704 0h-128v128h-64v-128h-192v256h384v-256zM960 0h-192v320h-512v-320h-192v896h128v-384h640v384h128v-896z" />
<glyph unicode="&#xe982;" glyph-name="scan_30" d="M887.467 891.733h68.267v-887.467h-68.267v887.467zM546.133 891.733h170.667v-887.467h-170.667v887.467zM341.333 891.733h136.533v-887.467h-136.533v887.467zM68.267 4.267h102.4v887.467l-102.4-3.413zM785.067 891.733v-887.467h34.133v887.467zM242.347 4.267h30.72v884.053l-30.72 3.413z" />
<glyph unicode="&#xe983;" glyph-name="schedule_Appt" d="M685.635 430.191v191.443h-338.365v-191.443h338.365zM605.496 603.826h57.878v-40.070h-57.878v40.070zM605.496 545.948h57.878v-40.070h-57.878v40.070zM605.496 488.070h57.878v-40.070l-58.769-0.445 0.89 40.515zM525.357 603.826h57.878v-40.070h-57.878v40.070zM525.357 545.948h57.878v-40.070h-57.878v40.070zM525.357 488.070h57.878v-40.070h-57.878v40.070zM449.67 603.826h53.426v-40.070h-53.426v40.070zM449.67 545.948h53.426v-40.070h-53.426v40.070zM449.67 488.070h53.426v-40.070l-53.426-0.445v40.515zM427.409 448l-58.323-0.445 0.445 40.515h57.878v-40.070zM427.409 505.878h-57.878v40.070h57.878v-40.070zM427.409 563.757h-57.878v40.070h57.878v-40.070zM664.71 732.939v-22.261c0-16.918-13.802-30.275-30.275-30.275-16.918 0-30.275 13.802-30.275 30.275v22.261h-179.423v-22.261c0-16.918-13.802-30.275-30.275-30.275s-30.275 13.802-30.275 30.275v22.261h-83.701v-373.983h471.93v373.983h-87.708zM721.252 390.122h-409.6v267.13h409.6v-267.13zM392.237 696.877h3.117c7.569 0 13.802 6.233 13.802 13.802v57.878c0 7.569-6.233 13.802-13.802 13.802h-3.117c-7.569-0.445-13.802-6.233-13.802-13.802v-57.878c0-7.569 6.233-13.802 13.802-13.802zM633.099 695.986h3.117c7.569 0 13.802 6.233 13.802 13.802v57.878c0 7.569-6.233 13.802-13.802 13.802h-3.117c-7.569 0-13.802-6.233-13.802-13.802v-57.878c0.445-8.014 6.233-13.802 13.802-13.802zM517.343-58.657c-278.706 0-505.767 227.061-505.767 505.767s227.061 505.767 505.767 505.767 505.767-227.061 505.767-505.767-226.616-505.767-505.767-505.767zM517.343 935.068c-268.911 0-487.513-219.047-487.513-487.958s219.047-487.958 487.958-487.958 487.958 219.047 487.958 487.958-219.047 487.958-488.403 487.958z" />
</font>
</defs>
</svg>
